<svg xmlns="http://www.w3.org/2000/svg" viewBox="0 0 240.001 233.9995"><radialGradient id="a" cx="97.71" cy="81.286" r="143.432" gradientUnits="userSpaceOnUse"><stop offset="0" stop-color="#09182e" stop-opacity=".85"/><stop offset=".767" stop-color="#09182e"/></radialGradient><path fill-rule="evenodd" clip-rule="evenodd" fill="url(#a)" d="M10 10h220v214H10z"/><path fill-rule="evenodd" clip-rule="evenodd" fill="#7CB1FF" d="M0 0v234h240.001V0H0zm10 10h220.001v214H10V10z"/><path fill-rule="evenodd" clip-rule="evenodd" fill="#7CB1FF" d="M111.874 162.18c-.165.99-.495 1.32-1.485 1.32H53.82c-.99 0-1.32-.33-1.32-1.32V54.82c0-.99.33-1.32 1.32-1.32h54.587c.99 0 1.32.164 1.486 1.154l1.484 13.776c.165.824-.164 1.32-.99 1.32H70.502v29.5h35.723c.825 0 1.277.33 1.277 1.154v13.94c0 .826-.495 1.156-1.32 1.156H70.5v31.75h42.405c.99 0 1.278.33 1.113 1.155l-2.145 13.775zM130.5 98.725c0-.99 0-4.455-.495-10.23 0-.661.15-.825.81-1.155 8.415-3.135 19.68-6.6 31.065-6.6 14.025 0 29.37 5.445 29.37 29.534v51.906c0 .99-.33 1.32-1.155 1.32H174.57c-.99 0-1.32-.496-1.32-1.32v-50.586c0-9.57-3.765-14.85-13.665-14.85-4.29 0-8.115.825-11.085 1.816v63.784c0 .66-.33 1.156-.99 1.156h-15.855c-.825 0-1.155-.33-1.155-1.156v-63.62z"/></svg>