<svg xmlns="http://www.w3.org/2000/svg" xmlns:xlink="http://www.w3.org/1999/xlink" version="1.1" x="0px" y="0px" viewBox="0 0 512 512" style="enable-background:new 0 0 512 512;" class="icon-svg icon-svg__size--24 " xml:space="preserve"><g><path d="M256 0c-141,0 -256,115 -256,256 0,141 115,256 256,256 141,0 256,-115 256,-256 0,-68 -27,-133 -75,-181 -48,-48 -113,-75 -181,-75zm0 489c-129,0 -233,-104 -233,-233 0,-129 104,-233 233,-233 129,0 233,104 233,233 0,62 -25,121 -68,165 -44,43 -103,68 -165,68l0 0z"></path><path d="M256 105c-45,0 -81,36 -81,81l0 12 23 0 0 -12c0,-32 26,-58 58,-58 32,0 58,26 58,58 0,32 -26,58 -58,58l-12 0 0 93 24 0 0 -70c42,-7 72,-44 69,-87 -3,-42 -39,-75 -81,-75z"></path><circle cx="256" cy="396" r="21"></circle></g></svg>