<?xml version="1.0" encoding="utf-8"?>
<!-- Generator: Adobe Illustrator 18.1.1, SVG Export Plug-In . SVG Version: 6.00 Build 0)  -->
<!DOCTYPE svg PUBLIC "-//W3C//DTD SVG 1.1//EN" "http://www.w3.org/Graphics/SVG/1.1/DTD/svg11.dtd">
<svg version="1.1" id="en_x5F_cc_x5F_app_x5F_RGB" xmlns="http://www.w3.org/2000/svg" xmlns:xlink="http://www.w3.org/1999/xlink"
	 x="0px" y="0px" viewBox="0 0 240.001 233.9995" enable-background="new 0 0 240.001 233.9995" xml:space="preserve">
<g>
	<radialGradient id="SVGID_1_" cx="97.7105" cy="81.286" r="143.4317" gradientUnits="userSpaceOnUse">
		<stop  offset="0" style="stop-color:#09182E;stop-opacity:0.85"/>
		<stop  offset="0.7669" style="stop-color:#09182E"/>
	</radialGradient>
	<rect x="10" y="10" fill-rule="evenodd" clip-rule="evenodd" fill="url(#SVGID_1_)" width="220" height="213.9995"/>
</g>
<g>
	<path fill-rule="evenodd" clip-rule="evenodd" fill="#7CB1FF" d="M0,0v233.9995h240.001V0H0z M10,10h220.001v213.9995H10V10z"/>
</g>
<path fill-rule="evenodd" clip-rule="evenodd" fill="#7CB1FF" d="M111.8736,162.1801c-0.1651,0.9903-0.4951,1.3203-1.4849,1.3203
	H53.8213c-0.9902,0-1.3203-0.33-1.3203-1.3203V54.8193c0-0.9893,0.3301-1.3193,1.3203-1.3193h54.587
	c0.9902,0,1.3203,0.164,1.4853,1.1542l1.4849,13.7754c0.165,0.8243-0.1646,1.3204-0.9898,1.3204H70.501v29.5h35.7227
	c0.8252,0,1.2773,0.33,1.2773,1.1542v13.9395c0,0.8262-0.4951,1.1563-1.3203,1.1563H70.501v31.7504h42.4053
	c0.9897,0,1.2773,0.3301,1.1123,1.1543L111.8736,162.1801z M130.501,98.7246c0-0.9903,0-4.4551-0.4951-10.2305
	c0-0.6602,0.1504-0.8242,0.8101-1.1543c8.415-3.1348,19.6801-6.6006,31.0649-6.6006c14.0254,0,29.3701,5.4453,29.3701,29.5352
	v51.9057c0,0.9903-0.3301,1.3203-1.1552,1.3203h-15.5245c-0.9902,0-1.3203-0.4961-1.3203-1.3203v-50.5864
	c0-9.5693-3.7646-14.8496-13.665-14.8496c-4.2901,0-8.1152,0.8252-11.085,1.8154v63.7847c0,0.6601-0.3301,1.1562-0.9902,1.1562
	h-15.8545c-0.8252,0-1.1553-0.33-1.1553-1.1562V98.7246z"/>
</svg>
