<svg xmlns="http://www.w3.org/2000/svg" viewBox="0 0 600 600"><defs><style>.cls-1,.cls-4{fill:#f7e8d7;}.cls-2{fill:#603813;}.cls-3{fill:#42210b;}.cls-4{stroke:#000;stroke-width:11px;}.cls-4,.cls-5{stroke-linecap:round;}.cls-10,.cls-4,.cls-8,.cls-9{stroke-miterlimit:10;}.cls-5{fill:none;stroke:#42210b;stroke-linejoin:round;}.cls-6{fill:#754c24;}.cls-7{fill:#331402;}.cls-10,.cls-8{fill:#c1272d;}.cls-8{stroke:#9e005d;}.cls-9{fill:#ed1c24;stroke:#d4145a;}.cls-10{stroke:#ed1e79;}</style></defs><title>love-it</title><g id="Layer_1" data-name="Layer 1"><path class="cls-1" d="M416.91,287c0,115.18-73.06,189.5-131.27,189.51s-131.29-76.78-131.3-189.49c0-88.24,58.76-159.78,131.27-159.78S416.9,198.8,416.91,287Z"/><path class="cls-2" d="M408.17,208.58c-13.43-32.29-17.75-62.33-53.23-84.1-35.21-21.6-96.42-17.15-131.53,3.46-35.65,20.94-48.27,56.14-65.72,91-18.9,37.74-12.83,76.57-8.68,118.68C157.53,424,249.24,519.85,339,471.16,423.31,425.4,441.81,289.47,408.17,208.58ZM334,404c-1.66,6.51-15.65,26.81-18.59,24.41a87.35,87.35,0,0,1-14.77,1.91c-24.05,1-52.15-8-64.53-30.88-.1,0,2.74-24.87,12.34-32,17.5-13,49.77-4.56,68,3.66C335.37,379.59,339.32,383.27,334,404Zm34.74-36.68c-19.39,3.8-28.72-9.9-42-21-25.79-21.47-58.62-19-85.67-1-8.52,5.66-20.63,23-35,22.33-10-.48-26.26-21.71-31.5-28.91-20.27-27.83-27.44-80.26-8.36-109.14a90.58,90.58,0,0,1,5.59-7.5,6.92,6.92,0,0,1,.22-1.06A74.58,74.58,0,0,1,207.54,178c7-9.28,13.23-11.87,28.38-5,36.32,16.54,59.69,24,97.22,4,74.16-39.52,83.77,116.79,73.8,158.18C398.38,334.09,382.25,364.68,368.76,367.33Z"/><path class="cls-3" d="M343.32,162.57a11.22,11.22,0,0,1-1.94,6.33,23.72,23.72,0,0,1-4.43,5,69.31,69.31,0,0,1-11,7.3,117.87,117.87,0,0,0-11.13,6.86,49.49,49.49,0,0,0-9.61,9.08,1.75,1.75,0,0,1-2.34.33,1.43,1.43,0,0,1-.55-1.62l0,0c1.12-3.5,2.06-7,2.81-10.56s1.32-7.07,1.74-10.57c.93.39,1.9.81,2.87,1.17a62,62,0,0,1-8.37,15.27,65.84,65.84,0,0,1-6,7c-1.1,1.12-2.25,2.19-3.45,3.27s-2.45,2.1-3.74,3.08h0a2.26,2.26,0,0,1-2.88-.17,1.62,1.62,0,0,1-.46-1.39l1-6.27c.32-2.09.62-4.19.9-6.29l1.81,1.84a60.2,60.2,0,0,1-16.72-1,65.67,65.67,0,0,1-15.87-5.3,68.13,68.13,0,0,1-7.26-4.11,51.26,51.26,0,0,1-6.54-5.14,30.8,30.8,0,0,1-5.33-6.34,14,14,0,0,1-2.39-7.76,14.05,14.05,0,0,0,3,7.35,31.78,31.78,0,0,0,5.6,5.75,49.71,49.71,0,0,0,6.64,4.57,66.1,66.1,0,0,0,7.22,3.63,67.72,67.72,0,0,0,15.46,4.49,60.82,60.82,0,0,0,15.9.51,1.66,1.66,0,0,1,1.81,1.76v0l-.51,6.33-.64,6.33c-1.13-.51-2.24-1-3.33-1.53a71.21,71.21,0,0,0,7-6.14,68.78,68.78,0,0,0,5.94-6.75A61,61,0,0,0,307,174.21h0a1.29,1.29,0,0,1,1.93-.68,2,2,0,0,1,.92,1.86,93,93,0,0,1-1.6,10.61q-.55,2.67-1.24,5.31c-.46,1.77-1,3.55-1.52,5.3-1-.43-1.92-.85-2.87-1.32a56.19,56.19,0,0,1,10.7-9.34,108.08,108.08,0,0,1,11.69-6.46A73.12,73.12,0,0,0,336.24,173a22.86,22.86,0,0,0,4.64-4.46A11,11,0,0,0,343.32,162.57Z"/><line class="cls-4" x1="247.23" y1="261.66" x2="247.23" y2="287.67"/><line class="cls-4" x1="324.02" y1="261.66" x2="324.02" y2="287.67"/><path class="cls-3" d="M145.85,287c0-.87.08-1.75.16-2.62l.28-2.61c.2-1.73.43-3.46.53-5.18a18.48,18.48,0,0,0-.35-5.08,11.64,11.64,0,0,0-2.05-4.51.61.61,0,0,1,.11-.84.57.57,0,0,1,.65,0h0l3.61,2.18,3.61,2.15-.85,1q-2.33-2.54-4.53-5.26c-.74-.91-1.43-1.84-2.11-2.77s-1.35-1.9-2-2.87h0a.71.71,0,0,1,.17-1,.66.66,0,0,1,.54-.11l2.37.57,2.37.59-.78.62a51.64,51.64,0,0,1,.61-6.39c.31-2.11.69-4.21,1.18-6.28l.71-3.11c.24-1,.53-2.05.8-3.08.54-2.05,1.06-4.1,1.63-6.14-.37,2.09-.73,4.18-1.14,6.25-.2,1-.42,2.07-.6,3.12l-.55,3.12c-.37,2.08-.69,4.17-.92,6.26a59.23,59.23,0,0,0-.44,6.28.64.64,0,0,1-.64.63h-.14l-2.38-.52-2.38-.54.71-1.08q1,1.43,2,2.82c.68.93,1.38,1.83,2.09,2.73q2.15,2.71,4.45,5.24h0a.68.68,0,0,1-.85,1l-3.57-2.21-3.56-2.25.78-.87a12.78,12.78,0,0,1,2.08,5,18.81,18.81,0,0,1,.12,5.34c-.19,1.76-.55,3.47-.85,5.19l-.48,2.57C146.09,285.32,145.95,286.18,145.85,287Z"/><path class="cls-3" d="M152.52,236.35c.15-.86.33-1.72.53-2.57s.43-1.7.68-2.53c.5-1.67,1-3.35,1.35-5a17.67,17.67,0,0,0,.53-5.06,12.28,12.28,0,0,0-1.22-4.81.62.62,0,0,1,.26-.81.57.57,0,0,1,.65.08h0l3.15,2.8,3.16,2.75-1,.86c-1.24-1.93-2.4-3.91-3.51-6-.55-1-1.08-2.08-1.57-3.13s-1-2.13-1.42-3.21h0a.73.73,0,0,1,.35-.93.66.66,0,0,1,.55,0l2.22,1,2.21,1-.88.45a49.16,49.16,0,0,1,1.87-6.15c.7-2,1.6-4,2.47-5.91.43-1,.93-1.91,1.4-2.87l1.45-2.83,3.07-5.57c-.86,1.94-1.7,3.88-2.61,5.8l-1.27,2.91c-.42,1-.87,1.93-1.25,2.91-.76,2-1.59,3.91-2.21,5.93a55.75,55.75,0,0,0-1.67,6.06.64.64,0,0,1-.75.5l-.12,0h0l-2.24-1-2.23-1,.9-.94q.69,1.61,1.43,3.17c.5,1,1,2.06,1.54,3.08q1.62,3.06,3.42,5.93h0a.67.67,0,0,1-1,.86c-1.07-.92-2.08-1.85-3.12-2.79l-3.09-2.85.93-.72a13.21,13.21,0,0,1,1.14,5.31,17.71,17.71,0,0,1-.8,5.28c-.46,1.7-1.06,3.35-1.66,5q-.47,1.22-.87,2.47C153,234.67,152.74,235.5,152.52,236.35Z"/><path class="cls-3" d="M168.84,188c.36-.79.76-1.58,1.17-2.35s.84-1.54,1.3-2.28c.94-1.48,1.81-3,2.65-4.48a19.38,19.38,0,0,0,1.92-4.71,12.11,12.11,0,0,0,.24-5,.63.63,0,0,1,.51-.69.57.57,0,0,1,.6.27v0q1,1.81,2.16,3.61l2.24,3.55-1.21.52a66,66,0,0,1-1.62-6.72c-.2-1.14-.37-2.29-.52-3.46s-.28-2.36-.34-3.53h0a.75.75,0,0,1,.65-.78.66.66,0,0,1,.53.17l1.77,1.68,1.77,1.68-1,.15a43.85,43.85,0,0,1,3.78-5.21,59.72,59.72,0,0,1,4.36-4.71c.75-.76,1.56-1.45,2.34-2.18s1.56-1.44,2.4-2.1c1.63-1.36,3.26-2.72,4.94-4-1.56,1.44-3.07,2.92-4.6,4.38-.79.71-1.5,1.49-2.25,2.24s-1.51,1.48-2.21,2.28c-1.41,1.57-2.85,3.12-4.1,4.81a48,48,0,0,0-3.55,5.18.65.65,0,0,1-.88.23l-.1-.07h0L180,164.82l-1.8-1.64,1.18-.61c.09,1.17.17,2.31.33,3.47s.34,2.3.53,3.42a59.79,59.79,0,0,0,1.52,6.64h0a.65.65,0,0,1-.46.81.69.69,0,0,1-.75-.29c-.75-1.17-1.47-2.37-2.19-3.57s-1.43-2.43-2.12-3.66l1.12-.41a13.92,13.92,0,0,1-.47,5.43,19.78,19.78,0,0,1-2.24,4.84c-.93,1.49-1.91,2.93-2.93,4.34-.52.7-1,1.43-1.47,2.16S169.27,187.22,168.84,188Z"/><path class="cls-3" d="M199.51,147.43a25.82,25.82,0,0,1,2-1.73l2.11-1.56c1.4-1,2.88-2,4.23-3a20.32,20.32,0,0,0,3.7-3.5,12.76,12.76,0,0,0,2.34-4.42.63.63,0,0,1,.75-.43.56.56,0,0,1,.42.5v0q.19,2.12.44,4.21c.16,1.39.35,2.77.53,4.14l-1.31-.05q.5-3.35,1.35-6.76c.3-1.11.65-2.22,1-3.34s.77-2.26,1.21-3.35h0a.74.74,0,0,1,.91-.42.66.66,0,0,1,.4.38l.88,2.28.88,2.28-1-.29a49.7,49.7,0,0,1,5.63-3.1c1.93-.93,3.91-1.74,5.91-2.48,1-.38,2-.71,3-1.06s2-.68,3-1c2-.61,4.05-1.24,6.1-1.81-2,.76-3.94,1.55-5.93,2.29-1,.36-2,.78-3,1.17s-2,.77-2.94,1.2c-1.94.84-3.87,1.68-5.73,2.67a55.6,55.6,0,0,0-5.42,3.17.65.65,0,0,1-.89-.16l-.06-.11v0l-.95-2.25-.92-2.26,1.32,0c-.42,1.08-.82,2.17-1.18,3.29s-.68,2.21-1,3.31a58.83,58.83,0,0,0-1.42,6.65h0a.64.64,0,0,1-.76.52.68.68,0,0,1-.56-.58c-.2-1.38-.34-2.75-.49-4.14s-.26-2.79-.37-4.2l1.17.08a13.58,13.58,0,0,1-2.72,4.73,19.9,19.9,0,0,1-4,3.48c-1.42,1-3,1.84-4.43,2.79l-2.21,1.39C200.89,146.36,200.2,146.89,199.51,147.43Z"/><path class="cls-3" d="M244.07,122.92c.81-.32,1.64-.61,2.47-.88l2.53-.69c1.68-.46,3.38-.86,5-1.38a19.92,19.92,0,0,0,4.64-2.09,12.57,12.57,0,0,0,3.57-3.46.62.62,0,0,1,.84-.18.57.57,0,0,1,.25.6v0l-.87,4.12-.8,4.1-1.25-.44c1-2.06,2.18-4,3.41-6,.61-1,1.27-1.95,1.94-2.9s1.37-1.9,2.09-2.84h0a.72.72,0,0,1,1-.15.67.67,0,0,1,.28.48l.2,2.43.19,2.43-.83-.54a53.38,53.38,0,0,1,6.27-1.4c2.11-.33,4.23-.6,6.36-.74,1.06-.08,2.12-.16,3.18-.21l3.18-.13c2.12,0,4.24-.1,6.36-.09-2.11.19-4.22.44-6.33.6l-3.16.32c-1.05.09-2.1.23-3.15.36-2.1.26-4.18.58-6.25,1a61.78,61.78,0,0,0-6.1,1.53.63.63,0,0,1-.8-.4.62.62,0,0,1,0-.12v0l-.26-2.43-.24-2.43,1.26.32c-.71.92-1.39,1.87-2,2.82s-1.29,1.91-1.91,2.86c-1.24,1.94-2.38,3.92-3.43,5.91h0a.66.66,0,0,1-.9.29.68.68,0,0,1-.35-.72c.26-1.38.56-2.75.86-4.11l.94-4.1,1.09.45a13.61,13.61,0,0,1-4,3.64,19.76,19.76,0,0,1-5,2c-1.7.45-3.43.73-5.14,1.08l-2.57.5C245.76,122.47,244.91,122.68,244.07,122.92Z"/><path class="cls-3" d="M294.12,113c.87-.09,1.75-.14,2.62-.17s1.75,0,2.62,0c1.75,0,3.48.1,5.21.05a20.12,20.12,0,0,0,5-.71,12.58,12.58,0,0,0,4.43-2.3.62.62,0,0,1,.86.07.57.57,0,0,1,.07.65v0q-1,1.85-2,3.71L311,118c-.35-.26-.7-.54-1.06-.79,1.57-1.66,3.23-3.25,5-4.79.88-.75,1.79-1.48,2.72-2.2s1.89-1.43,2.87-2.08h0a.75.75,0,0,1,1,.16.65.65,0,0,1,.12.54l-.55,2.38-.55,2.38-.63-.78q1.61.05,3.22.18c1.07.11,2.13.26,3.19.43s2.11.39,3.16.61,2.09.47,3.11.78,2.06.56,3.07.91l3,1,3,1.15c1,.38,2,.83,2.93,1.24-1-.31-2-.67-3-1l-3-.93-3.06-.84c-1-.29-2.05-.5-3.08-.75s-2.06-.45-3.1-.63-2.07-.39-3.12-.49-2.09-.23-3.13-.32-2.09-.1-3.13-.1a.65.65,0,0,1-.64-.64.63.63,0,0,1,0-.12v0l.48-2.39.5-2.39,1.12.7c-1,.67-1.9,1.32-2.82,2.05s-1.81,1.45-2.68,2.19a67.43,67.43,0,0,0-5,4.67h0a.66.66,0,0,1-.93,0,.68.68,0,0,1-.13-.79c.64-1.26,1.31-2.46,2-3.69s1.37-2.44,2.08-3.66l.91.74a13.51,13.51,0,0,1-4.92,2.34,19.89,19.89,0,0,1-5.31.5c-1.76,0-3.5-.24-5.23-.37-.87-.08-1.74-.17-2.6-.21S295,113,294.12,113Z"/><path class="cls-3" d="M344.55,119.22a19.79,19.79,0,0,1,2.45,1c.79.37,1.6.71,2.36,1.14l2.3,1.23c.75.43,1.5.86,2.27,1.25a21.81,21.81,0,0,0,4.68,2,15.25,15.25,0,0,0,5,.37.64.64,0,0,1,.68.54.57.57,0,0,1-.29.59h0q-1.86,1-3.66,2c-1.19.67-2.4,1.42-3.59,2.16l-.49-1.19c1.09-.32,2.22-.62,3.35-.88s2.23-.41,3.37-.57,2.31-.29,3.49-.39,2.39-.18,3.6-.21h0a.76.76,0,0,1,.73.71.67.67,0,0,1-.2.52l-1.76,1.68-1.76,1.68-.09-1c1.72,1.28,3.39,2.65,5,4.08l1.19,1.08,1.09,1.18q1.09,1.18,2.14,2.39l2.09,2.42c.7.8,1.28,1.7,1.92,2.55,1.26,1.72,2.5,3.43,3.78,5.11-1.44-1.56-2.82-3.17-4.17-4.8-.69-.8-1.32-1.66-2.06-2.41l-2.19-2.29-2.21-2.27-1.11-1.12-1.21-1c-1.62-1.34-3.26-2.64-5-3.84a.63.63,0,0,1-.2-.87l.08-.1h0l1.71-1.75,1.73-1.73c.19.4.36.82.54,1.23a33,33,0,0,0-3.5.18c-1.17.11-2.32.25-3.45.4s-2.25.33-3.35.54c-.55.11-1.09.21-1.63.33l-1.65.44h0a.62.62,0,0,1-.79-.45.69.69,0,0,1,.31-.74c1.18-.74,2.4-1.45,3.63-2.16s2.45-1.34,3.7-2l.37,1.14a13.16,13.16,0,0,1-2.72-.11,13.62,13.62,0,0,1-2.7-.51,21.12,21.12,0,0,1-4.78-2.3c-.76-.43-1.48-.91-2.21-1.39l-2.21-1.37c-.72-.49-1.49-.88-2.25-1.31A20.59,20.59,0,0,0,344.55,119.22Z"/><path class="cls-3" d="M384.16,150.65c.57.66,1.07,1.39,1.57,2.1l1.45,2.19c.94,1.47,1.92,2.9,2.92,4.3a17.6,17.6,0,0,0,3.32,3.84,12.26,12.26,0,0,0,4.43,2.37.61.61,0,0,1,.43.74.58.58,0,0,1-.51.42h0c-1.39.11-2.83.25-4.22.39l-4.19.47.05-1.31c2.25.38,4.56.84,6.82,1.44,1.1.32,2.19.67,3.29,1.05s2.2.78,3.3,1.21h0a.73.73,0,0,1,.43.91.66.66,0,0,1-.38.4l-2.28.89-2.28.88.29-1a55.47,55.47,0,0,1,3.2,5.58q1.29,2.94,2.43,5.93l1.13,3c.37,1,.74,2,1,3,.6,2,1.2,4.07,1.83,6.09-.82-2-1.58-3.93-2.31-5.92-.34-1-.76-2-1.2-2.94l-1.26-2.91c-.86-1.93-1.71-3.86-2.63-5.75a62.73,62.73,0,0,0-3.26-5.37.64.64,0,0,1,.16-.89l.11-.06h0l2.25-.95,2.26-.93,0,1.31q-1.64-.62-3.27-1.17c-1.09-.37-2.18-.7-3.26-1s-2.17-.62-3.31-.85-2.25-.46-3.37-.66h0a.65.65,0,0,1-.54-.76.68.68,0,0,1,.59-.55c1.39-.16,2.78-.29,4.19-.42s2.82-.23,4.24-.33l-.09,1.16a13.54,13.54,0,0,1-4.75-2.75,17.57,17.57,0,0,1-3.3-4.18c-1-1.48-1.83-3-2.67-4.5l-1.28-2.28C385.1,152.13,384.67,151.36,384.16,150.65Z"/><path class="cls-3" d="M408.17,195.61c.34.81.65,1.63.93,2.46s.56,1.66.8,2.5c.41,1.7.84,3.39,1.38,5a17.72,17.72,0,0,0,2.21,4.59,13.55,13.55,0,0,0,3.59,3.46.62.62,0,0,1,.18.84.58.58,0,0,1-.6.27h0l-4.1-.76-4.17-.69.39-1.26q1.57.74,3.13,1.55c1,.54,2,1.12,3,1.71s2,1.22,2.93,1.86,1.93,1.3,2.89,2h0a.72.72,0,0,1,.18,1,.66.66,0,0,1-.47.29l-2.43.29-2.43.28.52-.85c.67,2,1.24,4.11,1.72,6.19a31.3,31.3,0,0,1,.56,3.15q.23,1.58.42,3.17l.37,3.17.34,3.16c.23,2.11.48,4.2.58,6.33-.3-2.1-.72-4.18-1.08-6.26l-.53-3.13-.52-3.13c-.39-2.08-.66-4.17-1.21-6.21s-1.14-4-1.84-6a.64.64,0,0,1,.38-.82l.12,0h0l2.42-.35,2.42-.33-.28,1.27q-1.42-1-2.87-1.94c-1-.63-1.93-1.23-2.9-1.82a60.94,60.94,0,0,0-6-3.29h0a.66.66,0,0,1,.39-1.25c1.39.23,2.78.49,4.17.75s2.78.53,4.13.83l-.44,1.1a14.62,14.62,0,0,1-2-1.79,13,13,0,0,1-1.72-2.14,17.74,17.74,0,0,1-2.1-4.91c-.48-1.7-.77-3.43-1.08-5.15-.18-.85-.39-1.69-.61-2.54S408.43,196.44,408.17,195.61Z"/><path class="cls-3" d="M420,245.29c.14.86.25,1.73.33,2.6l.21,2.62c.12,1.74.24,3.48.5,5.18a21.33,21.33,0,0,0,.52,2.52q.17.62.39,1.22t.42,1.18a11.42,11.42,0,0,0,2.8,4.05.61.61,0,0,1,0,.85.58.58,0,0,1-.64.16h0l-3.92-1.47-3.92-1.44.66-1.18q2.73,2.06,5.36,4.32c.88.76,1.73,1.54,2.59,2.33s1.69,1.61,2.52,2.44h0a.71.71,0,0,1,0,1,.66.66,0,0,1-.51.21l-2.44-.12-2.44-.13.65-.75c.32,2.12.56,4.25.69,6.38s0,4.27-.07,6.39l-.12,3.18L423.5,290c-.1,2.12-.21,4.23-.27,6.34-.14-2.12-.2-4.24-.24-6.36l0-3.18,0-3.17c0-2.11-.07-4.22-.18-6.32s-.47-4.18-.84-6.24a.64.64,0,0,1,.51-.74h.14l2.44.07,2.44.09-.49,1.2q-1.24-1.22-2.51-2.39c-.85-.78-1.71-1.54-2.57-2.3q-2.58-2.26-5.28-4.32h0a.67.67,0,0,1-.12-.94.68.68,0,0,1,.77-.23l3.89,1.51,3.89,1.55-.62,1a12.56,12.56,0,0,1-2.91-4.54,22.39,22.39,0,0,1-1.15-5.22c-.18-1.76-.18-3.51-.19-5.25,0-.88,0-1.77,0-2.62S420.1,246.16,420,245.29Z"/><path class="cls-2" d="M371.75,365.37c.78-.31,1.57-.59,2.36-.85l2.35-.88c.78-.31,1.54-.67,2.3-1a23.22,23.22,0,0,0,2.17-1.23,11.91,11.91,0,0,0,3.51-3.35,8.7,8.7,0,0,0,1.47-4.42.51.51,0,0,1,.57-.5.62.62,0,0,1,.51.41v0c.46,1.32.88,2.64,1.26,4s.74,2.7,1,4.09c-.45.07-.93.1-1.39.14.13-1.15.19-2.34.26-3.49s.12-2.28.12-3.42.05-2.22,0-3.35l-.08-3.28h0a.56.56,0,0,1,.61-.6.73.73,0,0,1,.49.24l1.63,1.81,1.61,1.84-1,0c.61-.81,1.24-1.6,1.87-2.38s1.25-1.58,1.88-2.37q1.87-2.37,3.7-4.77c.59-.81,1.21-1.61,1.79-2.43s1.17-1.64,1.73-2.48c1.12-1.68,2.19-3.4,3.18-5.16a55.47,55.47,0,0,1-2.75,5.43c-.5.88-1,1.74-1.57,2.61s-1.11,1.69-1.67,2.54c-1.13,1.68-2.33,3.31-3.51,4.94l-3.63,4.85a.62.62,0,0,1-.88.11l-.09-.08h0L390,350.48l-1.61-1.83,1.1-.37c.07,1.1.1,2.18.12,3.28s.05,2.24,0,3.35,0,2.28-.11,3.42l-.25,3.48h0a.74.74,0,0,1-.78.66.65.65,0,0,1-.62-.52c-.25-1.38-.54-2.75-.88-4.12s-.7-2.69-1.1-4c.37,0,.73,0,1.09-.07a8.87,8.87,0,0,1-.56,2.54,8.61,8.61,0,0,1-1.23,2.31,12.47,12.47,0,0,1-3.92,3.41,24.74,24.74,0,0,1-4.71,2l-2.43.7C373.37,364.93,372.55,365.13,371.75,365.37Z"/><path class="cls-2" d="M405.78,331.94c.32-.77.68-1.53,1.06-2.28l1.1-2.26a35.86,35.86,0,0,0,2-4.59,13.86,13.86,0,0,0,.8-4.79,9.66,9.66,0,0,0-1.28-4.54.53.53,0,0,1,.22-.75.61.61,0,0,1,.65.07h0c1.08.86,2.19,1.74,3.24,2.63s2.12,1.8,3.16,2.75l-1,.87c-1.22-2-2.36-3.94-3.58-5.87-.61-1-1.16-1.91-1.78-2.86l-1.77-2.81h0a.59.59,0,0,1,.21-.85.72.72,0,0,1,.55-.05l2.33.71,2.33.74-.82.52c.11-1,.23-2,.39-3s.26-2,.43-3l.86-6,.36-3,.28-3,.15-3,0-3q.14,1.51.23,3c0,1,.06,2,.08,3l-.08,3-.21,3-.28,3-.33,3q-.19,1.5-.34,3c-.13,1-.24,2-.32,3a.63.63,0,0,1-.7.55l-.12,0h0l-2.33-.72-2.33-.72c.27-.3.51-.6.76-.91.62.92,1.2,1.84,1.8,2.77s1.22,1.88,1.8,2.83l1.78,2.9,1.76,2.94h0a.7.7,0,0,1-.23.95.67.67,0,0,1-.8-.08c-1-1-2.06-1.91-3.1-2.84s-2.08-1.83-3.14-2.72l.88-.67a10.5,10.5,0,0,1,1.24,5.05,14.34,14.34,0,0,1-1.09,5,33,33,0,0,1-2.28,4.54L407,329.77C406.6,330.48,406.17,331.2,405.78,331.94Z"/><path class="cls-2" d="M415.68,284.52q-.12-1.25-.17-2.51l-.07-2.51a44.68,44.68,0,0,0-.3-5,15.2,15.2,0,0,0-1.3-4.69,10.44,10.44,0,0,0-3-3.68.55.55,0,0,1-.09-.79.6.6,0,0,1,.62-.19h0l4,1.16c1.33.4,2.67.8,4,1.23l-.59,1.19c-1.91-1.29-3.75-2.6-5.61-3.92l-2.74-2-2.71-2h0a.62.62,0,0,1-.1-.9.71.71,0,0,1,.49-.25l2.43-.17,2.44-.15-.58.78c-.5-2-1-4-1.34-6s-.75-4-1.08-6l-.53-3c-.16-1-.37-2-.56-3-.36-2-.82-4-1.29-5.93.67,1.91,1.29,3.85,1.78,5.82.25,1,.53,2,.75,2.95l.68,3,1.33,5.91c.46,2,.94,3.92,1.48,5.85a.62.62,0,0,1-.44.76l-.12,0h0l-2.43.18-2.43.17.38-1.15,2.71,2,2.72,2c1.84,1.31,3.67,2.62,5.55,3.91h0a.67.67,0,0,1-.59,1.18l-4-1.32-4-1.26.55-1a11.32,11.32,0,0,1,3.16,4.16,15.46,15.46,0,0,1,1.14,5,40.24,40.24,0,0,1,0,5.06l-.13,2.51C415.71,282.85,415.68,283.68,415.68,284.52Z"/><path class="cls-2" d="M407.66,236.32c-.26-.79-.54-1.58-.78-2.39l-.68-2.42c-.46-1.61-1-3.2-1.57-4.74a15.86,15.86,0,0,0-2.51-4.17,10.32,10.32,0,0,0-3.91-2.68.54.54,0,0,1-.3-.73.6.6,0,0,1,.54-.36h0c1.39,0,2.76,0,4.16,0s2.79,0,4.19.07l-.23,1.31L400.09,218l-3.21-1.1-3.15-1.1h0a.6.6,0,0,1-.37-.81.71.71,0,0,1,.39-.38l2.27-.89,2.28-.87-.31.91c-1.13-1.7-2.08-3.49-3.1-5.24L392,203.23c-.49-.88-.95-1.78-1.48-2.64L388.93,198c-1-1.75-2.18-3.4-3.3-5.09,1.28,1.57,2.6,3.13,3.72,4.82l1.72,2.51c.58.83,1.08,1.72,1.62,2.57s1.09,1.7,1.6,2.57,1,1.74,1.56,2.59c1.1,1.7,2.06,3.46,3.22,5.12a.61.61,0,0,1-.2.86l-.11.06h0l-2.27.89-2.27.89v-1.19c1.06.34,2.11.7,3.15,1.06l3.18,1.07,6.44,2.21h0a.69.69,0,0,1,.43.86.67.67,0,0,1-.66.45l-4.2-.17q-2.09-.07-4.16-.09l.27-1.1a11.37,11.37,0,0,1,4.18,3.1,15.89,15.89,0,0,1,2.45,4.53,45.45,45.45,0,0,1,1.29,4.9l.49,2.46C407.27,234.7,407.47,235.51,407.66,236.32Z"/><path class="cls-2" d="M385.65,192.88c-.54-.64-1.1-1.27-1.61-1.93l-1.53-2a49,49,0,0,0-3.27-3.77,14.84,14.84,0,0,0-4-2.83,9.48,9.48,0,0,0-4.65-.85.53.53,0,0,1-.57-.54.62.62,0,0,1,.35-.56h0q1.87-.88,3.79-1.73c1.28-.56,2.57-1.12,3.88-1.64.12.43.23.86.32,1.31l-6.85.62c-1.11.09-2.23.19-3.36.32l-3.32.35h0a.59.59,0,0,1-.66-.59.73.73,0,0,1,.2-.51l1.68-1.77,1.7-1.75.09,1c-1.66-1.17-3.4-2.22-5-3.43s-3.33-2.28-4.94-3.5c-.81-.61-1.67-1.12-2.5-1.69l-2.51-1.69c-1.72-1.06-3.46-2.09-5.21-3.1,1.84.84,3.68,1.72,5.47,2.67l2.63,1.53c.87.53,1.76,1,2.6,1.57,1.68,1.12,3.42,2.16,5.09,3.29s3.41,2.16,5.08,3.28a.62.62,0,0,1,.18.86l-.08.1h0L367,177.66l-1.68,1.76-.47-1.11,3.28-.37,3.36-.37,6.8-.58h0a.68.68,0,0,1,.75.63.67.67,0,0,1-.43.69c-1.29.48-2.62,1-3.92,1.53s-2.58,1.07-3.84,1.63l-.2-1.1a10.73,10.73,0,0,1,5.08,1.12,15.32,15.32,0,0,1,4,3.2,43.19,43.19,0,0,1,3.08,4l1.37,2.11C384.68,191.52,385.17,192.2,385.65,192.88Z"/><path class="cls-5" d="M210.34,366.93c19.8,5,35.9-37.16,78-37.16s40.83,37.16,73,37.16"/><path class="cls-2" d="M233.23,161.93c-.83.16-1.67.29-2.51.4s-1.69.16-2.53.3a38.53,38.53,0,0,0-4.92,1.18,13.86,13.86,0,0,0-4.26,2.44,9.68,9.68,0,0,0-2.54,4,.53.53,0,0,1-.69.36.61.61,0,0,1-.39-.52v0c-.13-1.41-.2-2.79-.23-4.17s0-2.79,0-4.21l1.38.17-1.12,3.34c-.36,1.09-.7,2.15-1,3.29l-.86,3.27c-.27,1.07-.54,2.1-.75,3.21h0a.57.57,0,0,1-.74.45.72.72,0,0,1-.42-.35l-1.14-2.16-1.11-2.17.95.2c-1.58,1.31-3.27,2.45-4.84,3.75l-2.43,1.84q-1.17,1-2.37,1.93c-.8.63-1.62,1.24-2.36,1.94l-2.31,2c-1.55,1.34-3,2.82-4.43,4.25,1.32-1.57,2.61-3.18,4.08-4.62l2.19-2.17c.71-.74,1.51-1.39,2.27-2.07l2.29-2c.8-.64,1.59-1.28,2.38-1.94,1.52-1.37,3.19-2.54,4.75-3.88a.6.6,0,0,1,.87.09l.07.1v0l1.12,2.18,1.12,2.17-1.17.1c.22-1.06.42-2.21.69-3.24l.83-3.24c.31-1.08.59-2.25,1-3.32l1.12-3.3h0a.77.77,0,0,1,.91-.48.63.63,0,0,1,.47.65c-.07,1.43-.14,2.84-.15,4.23s0,2.77.06,4.13c-.37-.09-.72-.13-1.09-.19a10,10,0,0,1,3-4.29,8.53,8.53,0,0,1,2.22-1.42,22.08,22.08,0,0,1,2.44-1,35.61,35.61,0,0,1,5.1-.9c.85-.07,1.71-.06,2.56-.11S232.39,162,233.23,161.93Z"/><path class="cls-2" d="M191.61,186.61c-.53.66-1,1.33-1.6,2l-1.69,1.9a45.48,45.48,0,0,0-3.13,4,14.47,14.47,0,0,0-2.12,4.44,9.69,9.69,0,0,0-.11,4.78.55.55,0,0,1-.44.67.6.6,0,0,1-.6-.25v0l-2.31-3.49c-.76-1.17-1.53-2.36-2.26-3.56l1.25-.53,1.72,6.68.8,3.29.81,3.29h0a.62.62,0,0,1-.5.76.71.71,0,0,1-.54-.12l-2-1.42-2-1.44.95-.24q-.66,1.4-1.37,2.77t-1.41,2.74c-1,1.79-2,3.6-3,5.37-.51.89-1,1.77-1.5,2.68l-1.48,2.69c-1,1.79-1.89,3.63-2.81,5.47.73-1.91,1.47-3.84,2.35-5.69l1.3-2.79c.43-.93.9-1.84,1.37-2.75l2.75-5.48c.45-.92.89-1.84,1.31-2.76s.89-1.83,1.3-2.76a.62.62,0,0,1,.83-.31l.11.06h0l2,1.41,2,1.42-1,.65-.82-3.26c-.29-1.1-.57-2.18-.83-3.27l-1.69-6.64h0a.7.7,0,0,1,.5-.83.67.67,0,0,1,.75.3c.72,1.21,1.39,2.4,2.14,3.6l2.23,3.55-1.06.4a10.77,10.77,0,0,1,.3-5.25,14.94,14.94,0,0,1,2.46-4.59,40.64,40.64,0,0,1,3.43-3.82l1.83-1.77C190.45,187.83,191,187.22,191.61,186.61Z"/><path class="cls-2" d="M166.32,229c-.31.79-.6,1.58-.94,2.36l-1,2.32a43.85,43.85,0,0,0-1.87,4.69,14.78,14.78,0,0,0-.83,4.85,10,10,0,0,0,1.15,4.65.55.55,0,0,1-.25.76.6.6,0,0,1-.65-.09h0l-3.15-2.76c-1-.93-2.1-1.87-3.11-2.83l1.05-.84,3.42,6,1.63,3,1.62,3h0a.63.63,0,0,1-.29.87.71.71,0,0,1-.55,0l-2.28-.87L158,253.2l.86-.48c-.4,2-.78,4-1.29,6s-1,4-1.49,6l-.73,3c-.27,1-.45,2-.68,3-.47,2-.8,4-1.11,6a56.31,56.31,0,0,1,.61-6.13c.17-1,.29-2,.49-3l.58-3,1.24-6c.42-2,.77-4,1.12-6a.62.62,0,0,1,.72-.51l.12,0h0l2.29.85,2.28.86-.84.9-1.62-2.94-1.65-3c-1.08-2-2.23-4-3.37-5.94h0a.68.68,0,0,1,.26-.93.67.67,0,0,1,.8.09l3,2.89,3.08,2.84-.92.66a11,11,0,0,1-1.09-5.15,15.15,15.15,0,0,1,1.11-5.08,39.55,39.55,0,0,1,2.19-4.63l1.21-2.24C165.57,230.52,165.94,229.77,166.32,229Z"/><path class="cls-2" d="M153.52,276.71c0,.85-.07,1.69-.14,2.54s-.12,1.69-.18,2.54a25.68,25.68,0,0,0,.06,5.06,14.3,14.3,0,0,0,1.49,4.68,9.88,9.88,0,0,0,3.34,3.34.55.55,0,0,1,.17.76.6.6,0,0,1-.59.27h0c-1.41-.19-2.72-.43-4.1-.69s-2.74-.56-4.11-.9l.46-1.3c2.06,1.22,4,2.39,6,3.46l3,1.58,2.93,1.52h0a.6.6,0,0,1,.27.84.7.7,0,0,1-.44.33l-2.37.58-2.38.56.42-.87c.91,1.85,1.66,3.75,2.43,5.65s1.53,3.79,2.33,5.66l1.2,2.82c.39.94.77,1.89,1.22,2.81.89,1.84,1.68,3.73,2.68,5.53-1.17-1.69-2.12-3.52-3.13-5.31-.51-.89-1-1.82-1.4-2.74l-1.35-2.77c-.91-1.84-1.66-3.74-2.57-5.57s-1.62-3.74-2.57-5.56a.63.63,0,0,1,.32-.84l.12,0h0l2.37-.57,2.37-.57c-.07.39-.11.78-.17,1.18-1-.47-2-1-3-1.48l-3-1.55c-2.07-1-4-2.22-6-3.44h0a.75.75,0,0,1-.27-1,.64.64,0,0,1,.74-.32c1.38.37,2.75.73,4.11,1s2.72.59,4.06.83c-.15.34-.32.69-.45,1a10.59,10.59,0,0,1-3.55-3.83,8.79,8.79,0,0,1-.92-2.48,22.09,22.09,0,0,1-.45-2.6,24.52,24.52,0,0,1,.25-5.17c.12-.85.21-1.69.38-2.52S153.42,277.55,153.52,276.71Z"/><path class="cls-2" d="M167.18,323.49c.47.7.92,1.43,1.34,2.16l1.24,2.22c.86,1.46,1.72,2.91,2.69,4.28a15,15,0,0,0,3.46,3.5,9.62,9.62,0,0,0,4.45,1.75.55.55,0,0,1,.47.64.6.6,0,0,1-.45.48h0l-4.07,1c-1.36.31-2.75.63-4.11.89l-.07-1.35,6.86.68,3.37.38,3.36.36h0a.62.62,0,0,1,.55.72.71.71,0,0,1-.3.46L184,343l-2,1.36.09-1c1.46,1.45,2.83,3,4.24,4.47q1,1.13,2,2.3l2.07,2.26c.69.75,1.34,1.54,2.06,2.26l2.13,2.19,1.08,1.09,1.14,1,2.3,2q-1.25-.89-2.48-1.83l-1.22-.94c-.39-.33-.77-.68-1.15-1l-2.29-2.07c-.76-.69-1.45-1.45-2.18-2.17l-2.17-2.17c-.7-.75-1.4-1.49-2.12-2.22-1.46-1.43-2.84-2.92-4.32-4.33a.62.62,0,0,1,0-.88l.09-.08h0l2-1.39,2-1.38.26,1.19-3.35-.33-3.35-.35-6.81-.7h0a.69.69,0,0,1-.61-.75.67.67,0,0,1,.54-.6l4.1-.77,4.1-.87v1.13a10.71,10.71,0,0,1-4.83-2.09,15.45,15.45,0,0,1-3.49-3.87c-.93-1.46-1.69-3-2.46-4.5l-1.07-2.31C168,325,167.59,324.23,167.18,323.49Z"/><path class="cls-3" d="M422.61,296.34c0,1.13-.05,2.26-.13,3.39l-.3,3.38-.17,1.68-.21,1.67c-.13,1.11-.23,2.23-.29,3.34a25.93,25.93,0,0,0,.44,6.57,15.18,15.18,0,0,0,2.73,5.9.77.77,0,0,1-.16,1.09.8.8,0,0,1-.88,0h0l-4.84-2.94-4.84-2.87,1.15-1.31q3.13,3.31,6.06,6.91c.95,1.19,1.86,2.42,2.76,3.66s1.79,2.51,2.65,3.8h0a.9.9,0,0,1-.25,1.26.91.91,0,0,1-.73.12l-3.19-.85-3.18-.86,1.07-.76a62,62,0,0,1-1,8.23q-.37,2-.79,4.06c-.28,1.35-.64,2.68-1,4l-1.06,4c-.36,1.32-.73,2.64-1.14,3.95-.8,2.62-1.6,5.24-2.36,7.87.49-2.7,1.07-5.37,1.7-8,.33-1.33.61-2.67.88-4l.85-4c.57-2.67,1.06-5.35,1.42-8a70.78,70.78,0,0,0,.77-8.09.83.83,0,0,1,.88-.79l.16,0h0l3.2.77,3.2.8-1,1.38q-1.3-1.9-2.65-3.74c-.9-1.23-1.83-2.43-2.75-3.61-1.84-2.37-3.88-4.68-5.91-6.88h0a.83.83,0,0,1,.07-1.22,1,1,0,0,1,1.08-.08c1.61,1,3.2,1.94,4.79,2.93l4.78,3-1.06,1.11a16.58,16.58,0,0,1-2.76-6.55,20,20,0,0,1-.29-3.47,28.08,28.08,0,0,1,.16-3.43c.21-2.27.76-4.48,1.09-6.69l.56-3.33C422.34,298.58,422.5,297.46,422.61,296.34Z"/><path class="cls-3" d="M412.91,361.63c-.23,1.11-.51,2.2-.82,3.29l-1,3.24c-.34,1.07-.68,2.15-1,3.23s-.66,2.14-.94,3.22a22,22,0,0,0-.77,6.54,15,15,0,0,0,1.55,6.29.77.77,0,0,1-.36,1,.8.8,0,0,1-.87-.13l0,0-4.2-3.77-4.21-3.71,1.38-1.07q2.44,3.83,4.64,7.89c.73,1.35,1.43,2.74,2.1,4.13s1.27,2.8,1.87,4.23h0a.91.91,0,0,1-1.24,1.17l-3-1.43-3-1.44,1.2-.55a60.25,60.25,0,0,1-2.54,7.91c-1.06,2.56-2.08,5.12-3.35,7.57l-1.91,3.66c-.67,1.2-1.25,2.44-2,3.61-1.43,2.35-2.76,4.73-4.23,7.05,1.22-2.45,2.36-4.94,3.62-7.37.64-1.21,1.15-2.48,1.73-3.72l1.7-3.73c1.12-2.49,2.06-5.05,3-7.6a67.47,67.47,0,0,0,2.28-7.8.84.84,0,0,1,1-.61l.16.05h0l3,1.36,3,1.38-1.23,1.17q-.9-2.11-1.88-4.17c-.64-1.37-1.34-2.72-2.06-4.07q-2.14-4-4.53-7.84h0a.83.83,0,0,1,.31-1.18,1,1,0,0,1,1.08.12c1.4,1.23,2.77,2.5,4.15,3.76l4.12,3.84-1.26.89a16.38,16.38,0,0,1-1.45-6.93,22.39,22.39,0,0,1,1.13-6.81c.34-1.09.73-2.15,1.15-3.21s.8-2.11,1.21-3.16l1.23-3.15C412.19,363.77,412.59,362.72,412.91,361.63Z"/><path class="cls-3" d="M390.28,423.58c-.52,1-1.09,2-1.68,2.94s-1.2,1.91-1.83,2.85c-1.38,1.79-2.73,3.57-3.93,5.44a22.28,22.28,0,0,0-3.13,5.79,15.66,15.66,0,0,0-1,6.45.78.78,0,0,1-1.49.38v0q-1.2-2.58-2.43-5.11l-2.51-5,1.67-.45q.85,4.42,1.33,9c.14,1.53.2,3.05.25,4.6s.05,3.11,0,4.7h0a.93.93,0,0,1-1.63.58l-2.12-2.52-2.11-2.52c.45,0,.87,0,1.31,0-.84,1.11-1.79,2.12-2.72,3.16s-1.88,2.05-2.91,3-2.07,1.84-3.13,2.74l-1.59,1.34c-.54.43-1.11.83-1.67,1.23l-3.36,2.41c-1.1.82-2.32,1.48-3.48,2.22l-3.5,2.17-3.61,2c1.12-.78,2.26-1.54,3.4-2.29s2.2-1.62,3.32-2.42,2.26-1.54,3.3-2.43l3.2-2.55c.53-.43,1.07-.85,1.58-1.3l1.51-1.38c1-.92,2-1.85,3-2.8a74.22,74.22,0,0,0,5.32-6.12.82.82,0,0,1,1.16-.16l.12.11,0,0,2.2,2.46,2.18,2.48c-.53.21-1.06.41-1.62.6.06-1.53,0-3.1,0-4.63s-.15-3-.26-4.55a87.74,87.74,0,0,0-1.21-8.94h0a.81.81,0,0,1,.71-1,1,1,0,0,1,1,.52c.84,1.65,1.64,3.33,2.44,5s1.58,3.41,2.34,5.14l-1.5.35a16.81,16.81,0,0,1,1.29-7,22.27,22.27,0,0,1,3.56-5.9A66.72,66.72,0,0,1,386.3,429c.69-.88,1.37-1.77,2-2.67S389.67,424.53,390.28,423.58Z"/><path class="cls-3" d="M345,470.92c-.93.64-1.88,1.26-2.86,1.82l-3.05,1.48c-1,.48-2,1-3,1.46s-2,.89-3,1.39a31.11,31.11,0,0,0-5.56,3.54,16.25,16.25,0,0,0-4.14,5.13.77.77,0,0,1-1.09.31.8.8,0,0,1-.41-.79v0c.25-1.83.43-3.75.58-5.63s.26-3.75.36-5.61l1.63.46q-.71,2.12-1.56,4.25c-.57,1.4-1.17,2.89-1.87,4.2s-1.45,2.69-2.24,4-1.65,2.68-2.54,4h0a.93.93,0,0,1-1.31.25.92.92,0,0,1-.4-.64l-.41-3.26-.41-3.26c.38.25.74.46,1.12.69a69.47,69.47,0,0,1-8.09,2.06c-2.75.43-5.52.64-8.27.85a18,18,0,0,1-2.07.06h-2.07l-4.12-.06c-.69,0-1.37,0-2.05,0l-2.05-.17-4.1-.3q2.05-.07,4.11-.07h2.05c.68,0,1.37-.07,2-.1l4.09-.21,2-.1,1,0,1-.12c2.7-.37,5.42-.64,8.08-1.17s5.27-1.3,7.8-2.2a.81.81,0,0,1,1.06.48.86.86,0,0,1,0,.16v0l.53,3.26.5,3.27c-.57-.1-1.13-.21-1.71-.37.9-1.23,1.71-2.63,2.5-3.94s1.51-2.67,2.2-4a55.75,55.75,0,0,0,3.5-8.25h0a.77.77,0,0,1,1.07-.46,1,1,0,0,1,.56.93c-.08,1.85-.23,3.7-.4,5.58s-.38,3.76-.63,5.65c-.49-.14-1-.3-1.48-.49a18.74,18.74,0,0,1,4.7-5.39,30.84,30.84,0,0,1,6-3.4c1-.46,2.11-.8,3.15-1.22s2.08-.84,3.12-1.25l3.14-1.23Q343.57,471.74,345,470.92Z"/><path class="cls-3" d="M282,487.09a30.75,30.75,0,0,1-3.39,0l-3.36-.45c-1.12-.12-2.21-.42-3.31-.64s-2.2-.38-3.28-.62a30.05,30.05,0,0,0-6.56-.64,15.84,15.84,0,0,0-3.27.42,20.15,20.15,0,0,0-3.16,1,.81.81,0,0,1-1-.43.78.78,0,0,1,.18-.87l0,0q2-2,4-4c1.28-1.33,2.53-2.74,3.76-4.15l1,1.35c-1.24.82-2.52,1.64-3.85,2.39s-2.67,1.4-4.07,2.05-2.86,1.28-4.3,1.79-2.95,1-4.47,1.48h0a1,1,0,0,1-1.19-.6.9.9,0,0,1,.09-.74l1.73-2.81,1.73-2.81.44,1.23a37.28,37.28,0,0,1-3.87-1.58c-1.26-.59-2.54-1.14-3.73-1.86s-2.4-1.39-3.59-2.11-2.31-1.53-3.44-2.31-2.26-1.57-3.34-2.43l-3.25-2.54c-1.09-.84-2.11-1.75-3.17-2.62s-2.12-1.72-3.15-2.64c1.1.81,2.26,1.54,3.37,2.34s2.21,1.61,3.35,2.37l3.39,2.31c1.11.79,2.29,1.49,3.43,2.23s2.3,1.47,3.5,2.12,2.39,1.31,3.59,1.93,2.46,1.15,3.69,1.7a36,36,0,0,0,3.78,1.44.83.83,0,0,1,.52,1.06.88.88,0,0,1-.07.15v0L249,482.45l-1.66,2.85L246.2,484q2.26-.7,4.41-1.5c1.44-.54,2.82-1.07,4.22-1.73s2.74-1.3,4-2q1-.52,1.93-1.07t1.88-1.2h0a.75.75,0,0,1,1.11.28,1,1,0,0,1-.14,1.07c-1.2,1.41-2.47,2.78-3.77,4.15s-2.63,2.65-4,4l-.85-1.32a17.9,17.9,0,0,1,3.48-.91,17.68,17.68,0,0,1,3.55-.33,29.46,29.46,0,0,1,6.77,1c1.09.29,2.18.5,3.25.82s2.15.66,3.24.85l3.28.71A32.82,32.82,0,0,0,282,487.09Z"/><path class="cls-3" d="M222.06,461.87c-.92-.65-1.82-1.35-2.69-2.07s-1.73-1.46-2.55-2.23c-1.64-1.55-3.33-3-5-4.47a24.84,24.84,0,0,0-5.55-3.55,15.81,15.81,0,0,0-6.37-1.37.78.78,0,0,1-.76-.8.8.8,0,0,1,.51-.72h0c1.76-.68,3.49-1.35,5.23-2.07l5.2-2.17.35,1.69c-3,.36-6.08.63-9.13.69-1.53,0-3.07,0-4.62,0s-3.1-.11-4.64-.23h0a.91.91,0,0,1-.49-1.64l2.62-2,2.62-2-.05,1.32q-1.56-1.38-3-2.83c-1-1-1.91-2-2.83-3-1.86-2-3.55-4.24-5.2-6.44-.84-1.09-1.6-2.24-2.4-3.36s-1.57-2.25-2.31-3.4c-1.47-2.32-3-4.58-4.43-6.92,1.65,2.19,3.37,4.32,5,6.53.82,1.1,1.68,2.16,2.52,3.23s1.66,2.17,2.55,3.21c1.76,2.09,3.48,4.2,5.39,6.14.95,1,1.88,2,2.87,2.89s2,1.82,3,2.69a.84.84,0,0,1,.08,1.19l-.12.12,0,0-2.56,2.07-2.58,2-.49-1.64q2.3.16,4.57.22c1.54,0,3.06,0,4.58,0s3-.09,4.51-.18,3-.25,4.5-.41h0a.82.82,0,0,1,.93.78,1,1,0,0,1-.58.92c-1.72.72-3.46,1.41-5.21,2.09s-3.53,1.36-5.29,2L200,446.6a17.74,17.74,0,0,1,6.88,1.75,24.84,24.84,0,0,1,5.62,4c1.65,1.57,3.23,3.16,4.77,4.82.76.84,1.55,1.64,2.36,2.41S221.2,461.13,222.06,461.87Z"/><path class="cls-3" d="M176.54,414.25c-.69-.89-1.34-1.82-2-2.76s-1.17-1.93-1.75-2.9l-1.71-2.91c-.55-1-1.13-1.93-1.73-2.87a26.29,26.29,0,0,0-4.19-5.08,17.11,17.11,0,0,0-5.61-3.35.78.78,0,0,1,.23-1.53h0q2.84-.1,5.65-.27c1.87-.11,3.73-.26,5.57-.41-.08.57-.13,1.13-.19,1.7a82.07,82.07,0,0,1-8.86-2.22c-1.5-.45-2.9-1-4.36-1.56s-2.91-1.18-4.34-1.85h0a1,1,0,0,1-.45-1.26.9.9,0,0,1,.56-.5l3.16-.94,3.15-.94-.52,1.22a50.77,50.77,0,0,1-3.34-7.66l-.67-2-.54-2a38.45,38.45,0,0,1-.9-4.07c-.2-1.38-.49-2.73-.61-4.12s-.23-2.76-.31-4.13c-.1-2.74-.2-5.47-.34-8.2.42,2.71.74,5.43,1,8.15.17,1.35.38,2.7.57,4.05s.55,2.67.81,4,.69,2.63,1.07,3.94l.59,2,.73,1.9c.52,1.25,1,2.53,1.58,3.74s1.21,2.42,1.85,3.59a.84.84,0,0,1-.32,1.14l-.15.07h0l-3.13,1.06-3.14,1,.11-1.75c1.38.68,2.81,1.28,4.26,1.82s2.87,1.06,4.29,1.54a85.55,85.55,0,0,0,8.69,2.29h0a.81.81,0,0,1,.64,1,1,1,0,0,1-.84.69c-1.87.17-3.75.28-5.6.37s-3.74.15-5.63.19l.26-1.53a18.3,18.3,0,0,1,6,3.86,25.76,25.76,0,0,1,4.13,5.51c.57,1,1.09,2,1.58,3l1.52,3c.5,1,1,2,1.51,3S175.93,413.3,176.54,414.25Z"/><path class="cls-3" d="M152.48,353.65c-.16-1.12-.28-2.24-.36-3.37l-.19-3.39c-.1-2.25-.18-4.51-.45-6.72a22.59,22.59,0,0,0-1.63-6.37,15.1,15.1,0,0,0-3.82-5.22.76.76,0,0,1-.05-1.09.81.81,0,0,1,.86-.21h0l5.31,1.89,5.31,1.88-.87,1.52c-2.49-1.79-4.91-3.66-7.29-5.6-1.19-1-2.35-2-3.5-3s-2.28-2.05-3.4-3.11h0a.88.88,0,0,1,0-1.27.93.93,0,0,1,.69-.27l3.29.12,3.29.14-.88,1a79.37,79.37,0,0,1-.87-8.24c-.14-2.75-.21-5.5-.17-8.25l.07-4.11.14-4.11.35-8.21q.22,4.1.33,8.21l.13,4.1.14,4.1c.12,2.73.26,5.45.51,8.16s.57,5.4,1.07,8.06a.83.83,0,0,1-.69,1h-.19l-3.29-.06-3.29-.08.66-1.54q1.67,1.55,3.39,3.05c1.14,1,2.3,2,3.47,2.94,2.34,1.94,4.72,3.81,7.16,5.6h0a.86.86,0,0,1,.17,1.23.93.93,0,0,1-1,.29l-5.28-2-5.26-2,.83-1.29a16.48,16.48,0,0,1,4,5.86,22.68,22.68,0,0,1,1.4,6.77c.17,2.28.07,4.55,0,6.8l-.07,3.38C152.42,351.39,152.43,352.52,152.48,353.65Z"/><path class="cls-6" d="M276.49,131.61c-14.86,0-35.92,3-42.11,8.29"/><path class="cls-7" d="M276.49,131.59c-.74,0-1.48.06-2.23,0l-2.23,0a40.06,40.06,0,0,0-4.42.12,13.53,13.53,0,0,0-4.18,1,8.81,8.81,0,0,0-3.31,2.54.49.49,0,0,1-.7.07.51.51,0,0,1-.16-.54v0l1.09-3.44c.38-1.15.76-2.3,1.17-3.44l1,.53L259,133.27l-1.8,2.35-1.79,2.32h0a.55.55,0,0,1-.79.09.6.6,0,0,1-.22-.42l-.13-2.1-.11-2.1.69.5c-.87.23-1.75.43-2.63.62s-1.75.4-2.63.56l-5.24,1.1c-.87.19-1.73.42-2.6.62s-1.71.48-2.56.76a18,18,0,0,0-4.79,2.33,16.49,16.49,0,0,1,4.64-2.74c.84-.34,1.69-.63,2.54-.93s1.72-.53,2.59-.76l2.6-.68,2.61-.64c1.74-.42,3.48-.84,5.2-1.31a.54.54,0,0,1,.69.48v0l.14,2.1.13,2.1-1-.33,1.75-2.33,1.77-2.35,3.57-4.74h0a.61.61,0,0,1,.84-.13.57.57,0,0,1,.21.66l-1.25,3.4-1.19,3.42-.85-.49A9.74,9.74,0,0,1,263.1,132a13.78,13.78,0,0,1,4.47-.9,36.14,36.14,0,0,1,4.49.15l2.22.19C275,131.51,275.75,131.57,276.49,131.59Z"/><path class="cls-6" d="M309.6,130.32c28.2-3,49.26,18,49.26,18"/><path d="M309.6,130.33c.92-.07,1.84-.13,2.76-.17s1.84-.11,2.76-.08l2.75.16c.91.06,1.83,0,2.73.18s1.8.19,2.69.25l1.32.06,1.28.12a23.53,23.53,0,0,0,2.46.06c.39,0,.78,0,1.15-.06s.73,0,1.07-.05a1.37,1.37,0,0,1,.87.27c.16.13.16.25,0,.31h0q-1.15.55-2.25,1.12c-.74.39-1.47.85-2.19,1.27L326,133.2q1.27-.32,2.62-.61c.9-.19,1.8-.27,2.74-.39s1.91-.21,2.88-.25,2,0,3,0h0a1.62,1.62,0,0,1,1,.39c.11.11.14.22.09.29l-.67.91-.68.91-.59-.56c.53.19,1.08.35,1.6.56l1.56.66c1,.45,2.09.88,3.08,1.43a61.93,61.93,0,0,1,5.85,3.39c.92.64,1.86,1.26,2.77,1.92s1.8,1.32,2.66,2a61.1,61.1,0,0,1,5,4.44c-1.65-1.51-3.38-2.93-5.16-4.27-.87-.69-1.81-1.31-2.71-2s-1.86-1.23-2.79-1.85a66,66,0,0,0-5.83-3.24c-1-.52-2-.93-3-1.36a29.39,29.39,0,0,0-3.08-1.17c-.35-.11-.62-.34-.61-.5a.12.12,0,0,1,0-.05h0l.61-.94.63-.93,1.08.68q-1.49,0-2.92,0l-1.41,0-1.41.15a34.5,34.5,0,0,0-5.32.88h0a1.38,1.38,0,0,1-1-.18c-.21-.14-.24-.29-.09-.38.72-.43,1.47-.84,2.23-1.26s1.55-.82,2.33-1.16l.89.59c-.78.06-1.6,0-2.48,0a26.28,26.28,0,0,1-2.7-.11q-.69-.06-1.38-.16c-.46-.06-.93-.06-1.4-.11-.93-.08-1.86-.19-2.78-.32s-1.84-.16-2.75-.25l-2.74-.23c-.91-.05-1.82,0-2.74,0S310.52,130.29,309.6,130.33Z"/><circle cx="284.5" cy="394.5" r="19"/><g id="Favorite"><path class="cls-8" d="M237.27,225.15c1.34-.18,2.79-.3,4.34-.35,9.43-.34,21.31,6.63,24.75,22.54l.71,5.35c.81,15.56-8.49,36.1-39.85,64.49-37.66-19.26-52-36.69-55.24-51.92l-.71-5.35c-.81-16.26,8.85-26.07,18-28.2,1.51-.35,2.93-.61,4.28-.79,10.76-1.42,16.53,2.47,23.36,8.62,5-7.71,9.55-13,20.32-14.4"/><path class="cls-8" d="M333,225.15c10.76,1.42,15.32,6.68,20.32,14.4,6.83-6.15,12.6-10,23.36-8.62,1.34.18,2.77.44,4.28.79,9.2,2.13,18.86,11.94,18,28.2l-.71,5.35C395,280.49,380.67,297.92,343,317.18c-31.36-28.38-40.67-48.93-39.85-64.49l.71-5.35c3.44-15.91,15.32-22.88,24.75-22.54,1.55.06,3,.17,4.34.35"/><path class="cls-9" d="M232.59,238.78c1-.13,2.06-.22,3.21-.26,7-.25,15.8,4.92,18.35,16.71l.52,4c.6,11.53-6.29,26.77-29.55,47.81-27.92-14.28-38.54-27.2-41-38.49l-.52-4c-.6-12.05,6.56-19.33,13.38-20.91,1.12-.26,2.18-.45,3.17-.58,8-1.05,12.26,1.83,17.32,6.39,3.7-5.72,7.08-9.62,15.06-10.67"/><path class="cls-9" d="M337.63,235.78c8,1.05,11.36,5,15.06,10.67,5.06-4.56,9.34-7.45,17.32-6.39,1,.13,2.05.32,3.17.58,6.82,1.58,14,8.85,13.38,20.91l-.52,4c-2.41,11.29-13,24.21-41,38.49-23.25-21-30.15-36.28-29.55-47.81l.52-4c2.55-11.8,11.36-17,18.35-16.71,1.15,0,2.22.13,3.21.26"/><path class="cls-10" d="M227.56,251.52c.62-.08,1.29-.14,2-.16,4.37-.16,9.88,3.07,11.47,10.45l.33,2.48c.38,7.21-3.93,16.73-18.47,29.88-17.45-8.92-24.09-17-25.59-24.06l-.33-2.48c-.38-7.53,4.1-12.08,8.36-13.07.7-.16,1.36-.28,2-.36,5-.66,7.66,1.15,10.82,4,2.31-3.57,4.43-6,9.41-6.67"/><path class="cls-10" d="M342.67,248.52c5,.66,7.1,3.1,9.41,6.67,3.16-2.85,5.84-4.66,10.82-4,.62.08,1.28.2,2,.36,4.26,1,8.74,5.53,8.36,13.07l-.33,2.48c-1.51,7.06-8.14,15.13-25.59,24.06-14.53-13.15-18.84-22.67-18.47-29.88l.33-2.48c1.59-7.37,7.1-10.6,11.47-10.45.72,0,1.39.08,2,.16"/></g></g></svg>