<svg xmlns="http://www.w3.org/2000/svg" viewBox="0 0 600 600"><defs><style>.cls-1{isolation:isolate;}.cls-2{mix-blend-mode:multiply;}.cls-3{font-size:122.39px;fill:#f0f;stroke:#f0f;stroke-width:4px;font-family:ArialRoundedMTBold, Arial Rounded MT Bold;}.cls-10,.cls-3{stroke-miterlimit:10;}.cls-4,.cls-6{fill:#c7e7f2;}.cls-4,.cls-5,.cls-6{stroke:#fff;stroke-linejoin:bevel;}.cls-12,.cls-4,.cls-5{stroke-width:3px;}.cls-11,.cls-12,.cls-5{fill:none;}.cls-6{stroke-width:2.01px;}.cls-10,.cls-7{fill:#f7e8d7;}.cls-8{fill:#603813;}.cls-9{fill:#42210b;}.cls-10,.cls-12{stroke:#000;}.cls-10,.cls-11,.cls-12{stroke-linecap:round;}.cls-10{stroke-width:11px;}.cls-11{stroke:#42210b;}.cls-11,.cls-12{stroke-linejoin:round;}.cls-13{fill:#754c24;}.cls-14{fill:#331402;}</style></defs><title>tools</title><g class="cls-1"><g id="Layer_2" data-name="Layer 2"><g class="cls-2"><text class="cls-3" transform="translate(-304.06 488.16)">20%</text></g><path class="cls-4" d="M503.07,156.84l-5.25,9.63-6.06-2.89-1,.57-5.25,9.63-6.06-2.89-1,.57-5.25,9.63-6.06-2.89-1,.57L461,188.39,455,185.5l-1,.57-5.25,9.63-6.06-2.89-1,.57L436.47,203l-6.06-2.89-1,.57-5.25,9.63-6.06-2.89-1,.57-5.25,9.63-6.06-2.89-1,.57-5.25,9.63L393.61,222l-1,.57-5.25,9.63-6.06-2.89-1,.57-5.25,9.63-6.06-2.89s-8-14.71-10.9-19.51,131.8-124,138.4-128,8.51-.73,12.32,5.67l21,35.19c2.86,4.8-2.24,12.17-2.24,12.17l-5.25,9.63L516.31,149l-1,.57-5.25,9.63L504,156.26"/><path class="cls-4" d="M523.49,70.36,492.68,88.72c-3.82,2.27-4.19,6.55-.83,9.51l30,26.42c12.14,10.68,33.37,12.7,47.17,4.48l9.56-5.69c14.53-8.66,16-24.94,3.17-36.19L567.32,74.52C556,64.59,536.31,62.72,523.49,70.36Zm42.64,19.78c9.31,8.17,8.25,20-2.36,26.34-10.07,6-25.55,4.56-34.39-3.2l-17-14.93c-2.45-2.15-2.17-5.26.62-6.92l15.51-9.24c9.36-5.58,23.74-4.24,32,3Z"/><path class="cls-4" d="M77.53,62.75c-23.47,13.91-17.27,43.49-15.94,47.14s19.12-29.28,37-24.6"/><path class="cls-4" d="M211.53,202.72l-6.1,4.84c-3.35,2.66-7.82,2.67-9.92,0L102.76,86.65a6.16,6.16,0,0,1,1-8.63l4.81-3.82a6.16,6.16,0,0,1,8.63,1l96.61,117.87C215.91,195.72,214.88,200.06,211.53,202.72Z"/><path class="cls-4" d="M115.82,23h16.59a8.8,8.8,0,0,1,8.8,8.8V58.41a8.8,8.8,0,0,1-8.8,8.8H115.82a13.93,13.93,0,0,1-13.93-13.93V36.9A13.93,13.93,0,0,1,115.82,23Z" transform="translate(-1.7 85.29) rotate(-38.42)"/><rect class="cls-4" x="79.31" y="47.74" width="34.41" height="34.41" rx="5" ry="5" transform="translate(-19.46 74.03) rotate(-38.42)"/><rect class="cls-4" x="85.52" y="465.67" width="47.28" height="78.8" rx="23.64" ry="23.64" transform="translate(347.06 46.36) rotate(39.61)"/><line class="cls-4" x1="100.59" y1="477.58" x2="137.09" y2="507.79"/><path class="cls-5" d="M119.22,493l15.41-18.62c9.25-11.17,27,2.26,39-22.91s-8.43-38.35,6.26-50,40.94-10,50.16-28.77"/><path class="cls-4" d="M197.53,300.37h0a3.93,3.93,0,0,1-4.06,3.75l-89.62-6.77L66.31,291a3.93,3.93,0,0,1-3.21-4.5h0a3.93,3.93,0,0,1,4.06-3.75l38,1.44,89.11,11.72A3.93,3.93,0,0,1,197.53,300.37Z"/><path class="cls-4" d="M35.18,274.4c11.39,1.18,20.2,6.19,19.68,11.2s-10.17,8.12-21.56,6.94S16.1,281.6,9.5,280.92C2.08,280.15,23.79,273.23,35.18,274.4Z"/><rect class="cls-4" x="56.47" y="276.51" width="13.27" height="19.9" rx="5" ry="5" transform="translate(-228.33 319.76) rotate(-84.09)"/><rect class="cls-4" x="416.62" y="395.95" width="18.4" height="182.03" transform="translate(1062.15 603.35) rotate(141.53)"/><polygon class="cls-4" points="489.64 552.5 503.9 584.46 475.24 563.95 489.64 552.5"/><polygon class="cls-4" points="496.95 569.48 503.7 584.62 490.12 574.9 496.95 569.48"/><polygon class="cls-4" points="545.6 365.31 558.98 394.11 410.18 347.57 396.81 318.78 545.6 365.31"/><path class="cls-4" d="M377.39,319.74a26.56,26.56,0,0,0-7.92,11l20.39-5.82s12.34,5.8,13.14,12.46c1.06,8.8-2.2,17.29-2.2,17.29l-23,6.57a26.7,26.7,0,1,0-.37-41.5Z"/><path class="cls-4" d="M582,398.58a26.56,26.56,0,0,0,8.13-10.83l-20.5,5.42s-12.22-6-12.9-12.71c-.89-8.82,2.53-17.24,2.53-17.24l23.17-6.13a26.7,26.7,0,1,0-.43,41.5Z"/><path class="cls-6" d="M380,375.95l1-.95q43.79,31.05,88.32,61.35T559,496.11c-1.86,2.06-3.86,4-5.84,6l-6,5.89Q465.13,440.5,380,375.95Z"/><path class="cls-6" d="M327.59,388.21l1.23-.44q32.7,96.78,69.4,192.23c-5.19,1.77-10.38,3.57-15.68,5Q357.09,486,327.59,388.21Z"/><path class="cls-6" d="M314.55,391.64l1.1-.14q12,85.14,27.5,169.81c-4.56.6-9.13,1.23-13.7,1.69Q323.75,477.24,314.55,391.64Z"/><path class="cls-6" d="M293.76,392.1l1.25.12q-4.11,96.56-4.32,193.23c-5.14-.07-10.3-.51-15.44-.91Q286.46,488.47,293.76,392.1Z"/><path class="cls-6" d="M276.89,389.47l1.26.26Q255.43,486.89,236.74,585c-5.27-1.19-10.55-2.36-15.74-3.89Q250.95,485.83,276.89,389.47Z"/><path class="cls-6" d="M261,383.73l1.13.5q-38.85,88.5-74.08,178.62l-7.1-3.18c-2.35-1.09-4.74-2.12-7-3.32Q219.24,471,261,383.73Z"/><path class="cls-6" d="M222.72,350.53l.65,1.06q-79.5,54.89-156.78,113c-1.47-2.12-3-4.19-4.41-6.38L58,451.71Q141.42,402.79,222.72,350.53Z"/><path class="cls-6" d="M214.68,335.54a11.27,11.27,0,0,0,.54,1.23Q119.55,379.37,25.6,425.92l-3.45-7.69C21.05,415.64,20,413,19,410.41Q117.64,375,214.68,335.54Z"/><path class="cls-6" d="M209.75,319.39l.24,1Q133.48,338.13,57.71,359l-1.43-6-.69-3-.58-3Q132.66,334.7,209.75,319.39Z"/><path class="cls-6" d="M177,258.17l-.26.83Q113.31,237.37,49,218.42l1.72-5.24.88-2.61,1-2.58Q114.28,234.4,177,258.17Z"/><path class="cls-6" d="M220.23,253.51l-.62,1.08q-84.52-46.88-171-90.3c2.52-4.52,5.08-9,7.76-13.45Q137.2,203.81,220.23,253.51Z"/><path class="cls-6" d="M256.8,218.37a10.58,10.58,0,0,0-1.1.58Q208.38,134.71,157.61,52.4c2.25-1.28,4.48-2.59,6.76-3.82L171.28,45Q212.27,132.6,256.8,218.37Z"/><path class="cls-6" d="M272.41,211.76l-1.31.47Q236.18,108.9,197,7c5.55-1.89,11.08-3.81,16.74-5.34Q240.92,107.35,272.41,211.76Z"/><path class="cls-6" d="M289,208.34l-1.23.16q-13.5-95.71-30.91-190.89c5.13-.67,10.26-1.39,15.4-1.9Q278.66,112.11,289,208.34Z"/><path class="cls-6" d="M307.25,207.9l-1.1-.1Q309.77,122.44,310,37c4.55.06,9.1.45,13.65.8Q313.7,122.71,307.25,207.9Z"/><path class="cls-6" d="M339,216.27l-1.13-.5q38.85-88.5,74.08-178.62l7.1,3.18c2.35,1.09,4.74,2.12,7,3.32Q380.76,129,339,216.27Z"/><path class="cls-6" d="M353.65,224.88l-1-.73q54.47-79.84,105.68-161.91c4.31,2.86,8.48,5.92,12.68,8.93Q410.75,146.85,353.65,224.88Z"/><path class="cls-6" d="M385.27,264.46a10.4,10.4,0,0,0-.5-1.13Q473,224,559.71,181.08l3.18,7.1c1,2.39,1.95,4.81,2.91,7.22Q474.8,228.08,385.27,264.46Z"/><path class="cls-6" d="M390.26,279l-.26-1.09q82.44-20.2,164.08-43.91l1.54,6.87.75,3.44.63,3.46Q473.32,261.61,390.26,279Z"/><path class="cls-6" d="M412,296.54l0-1.18Q498.7,291,585.17,283c.2,2.41.21,4.81.29,7.22l.16,7.22Q498.8,295.15,412,296.54Z"/></g><g id="Layer_1" data-name="Layer 1"><path class="cls-7" d="M375.82,300.24c0,79.48-50.41,130.76-90.58,130.77s-90.6-53-90.6-130.75c0-60.89,40.55-110.25,90.58-110.26S375.82,239.35,375.82,300.24Z"/><path class="cls-8" d="M369.79,246.1c-9.27-22.28-12.25-43-36.73-58-24.3-14.91-66.54-11.84-90.76,2.39C217.71,204.92,209,229.2,197,253.24c-13,26-8.85,52.83-6,81.89,5.87,59.63,69.15,125.75,131.08,92.15C380.24,395.71,393,301.92,369.79,246.1ZM318.62,380.95c-1.15,4.49-10.8,18.5-12.83,16.85a60.28,60.28,0,0,1-10.19,1.32c-16.6.71-36-5.5-44.52-21.31-.07,0,1.89-17.16,8.51-22.07,12.08-8.94,34.34-3.14,47,2.52C319.55,364.1,322.28,366.64,318.62,380.95Zm24-25.31c-13.38,2.62-19.82-6.83-29-14.48-17.8-14.81-40.45-13.09-59.11-.68-5.88,3.91-14.23,15.88-24.15,15.41-6.9-.33-18.12-15-21.74-20-14-19.21-18.94-55.38-5.77-75.31a62.5,62.5,0,0,1,3.86-5.18,4.78,4.78,0,0,1,.15-.73A51.46,51.46,0,0,1,231.35,225c4.81-6.41,9.13-8.19,19.58-3.43C276,233,292.12,238.12,318,224.32c51.17-27.27,57.8,80.59,50.92,109.15C363,332.71,351.9,353.82,342.6,355.64Z"/><path class="cls-9" d="M325,214.35a7.74,7.74,0,0,1-1.34,4.37,16.37,16.37,0,0,1-3.06,3.44,47.82,47.82,0,0,1-7.57,5,81.32,81.32,0,0,0-7.68,4.74,34.15,34.15,0,0,0-6.63,6.27,1.2,1.2,0,0,1-1.61.23,1,1,0,0,1-.38-1.12v0c.77-2.41,1.42-4.85,1.94-7.29s.91-4.88,1.2-7.29c.64.27,1.31.56,2,.81a42.78,42.78,0,0,1-5.78,10.54,45.42,45.42,0,0,1-4.16,4.82,49.76,49.76,0,0,1-5,4.38h0a1.56,1.56,0,0,1-2-.12,1.12,1.12,0,0,1-.32-1l.66-4.33.62-4.34,1.25,1.27a41.54,41.54,0,0,1-11.54-.67,45.32,45.32,0,0,1-11-3.65,47,47,0,0,1-5-2.84,35.37,35.37,0,0,1-4.51-3.54,21.25,21.25,0,0,1-3.68-4.38,9.69,9.69,0,0,1-1.65-5.35,9.7,9.7,0,0,0,2.07,5.07,21.94,21.94,0,0,0,3.86,4,34.29,34.29,0,0,0,4.58,3.16,45.61,45.61,0,0,0,5,2.5,46.73,46.73,0,0,0,10.66,3.1,42,42,0,0,0,11,.35,1.14,1.14,0,0,1,1.25,1.21v0l-.36,4.37-.44,4.37-2.3-1.06A49.13,49.13,0,0,0,290,237.2a47.46,47.46,0,0,0,4.1-4.66A42.1,42.1,0,0,0,300,222.38h0a.89.89,0,0,1,1.33-.47,1.39,1.39,0,0,1,.64,1.28,64.12,64.12,0,0,1-1.1,7.32,73.85,73.85,0,0,1-1.91,7.32c-.67-.3-1.33-.59-2-.91a38.78,38.78,0,0,1,7.38-6.44,74.58,74.58,0,0,1,8.07-4.46,50.46,50.46,0,0,0,7.72-4.46,15.78,15.78,0,0,0,3.2-3.07A7.6,7.6,0,0,0,325,214.35Z"/><line class="cls-10" x1="258.74" y1="282.73" x2="258.74" y2="300.67"/><line class="cls-10" x1="311.73" y1="282.73" x2="311.73" y2="300.67"/><path class="cls-9" d="M188.79,300.25c0-.86.09-1.72.18-2.58l.3-2.57c.23-1.71.43-3.41.52-5.11a17.12,17.12,0,0,0-.23-5,11.73,11.73,0,0,0-2-4.51.59.59,0,0,1,.79-.85h0c1.16.75,2.37,1.51,3.56,2.24l3.58,2.2-.85,1c-1.53-1.69-3.06-3.46-4.46-5.28-.69-.91-1.35-1.85-2-2.8s-1.3-1.92-1.92-2.91h0a.71.71,0,0,1,.2-1A.66.66,0,0,1,187,273l2.35.66,2.35.67-.8.58a40.44,40.44,0,0,1,.84-6.28q.64-3.1,1.45-6.14l.95-3,1-3c.61-2,1.39-3.94,2.12-5.9-.53,2-1.16,4-1.63,6l-.79,3-.79,3c-.42,2-.84,4.08-1.18,6.12a44.25,44.25,0,0,0-.67,6.16.63.63,0,0,1-.66.6l-.12,0h0L189,275l-2.36-.62.74-1.05q.94,1.46,1.92,2.86c.65.94,1.33,1.85,2,2.76,1.32,1.81,2.83,3.57,4.33,5.26h0a.65.65,0,0,1-.06.93.68.68,0,0,1-.8.06c-1.19-.73-2.36-1.49-3.54-2.25l-3.53-2.31c.26-.28.52-.56.8-.84a13.15,13.15,0,0,1,2,5,17.17,17.17,0,0,1,0,5.26c-.18,1.73-.51,3.42-.84,5.11l-.5,2.53C189,298.54,188.89,299.39,188.79,300.25Z"/><path class="cls-9" d="M197.26,250.64c.22-.83.48-1.66.75-2.48s.56-1.63.92-2.42c.69-1.58,1.37-3.15,1.92-4.76a24,24,0,0,0,1.19-4.88,12.18,12.18,0,0,0-.54-4.94.6.6,0,0,1,.41-.75.58.58,0,0,1,.63.19v0c.85,1.09,1.75,2.17,2.66,3.25L208,237l-1.11.67a57.74,57.74,0,0,1-2.63-6.36c-.36-1.08-.68-2.19-1-3.32s-.58-2.28-.84-3.45h0a.74.74,0,0,1,.51-.86.64.64,0,0,1,.54.1l2,1.44,2,1.44-.94.28c.21-.49.41-1,.65-1.46l.77-1.39q.79-1.38,1.64-2.73a41.44,41.44,0,0,1,3.77-5.1c.68-.8,1.31-1.64,2-2.41l2.21-2.24,2.2-2.23,2.36-2.07q-1.06,1.15-2.16,2.27l-2,2.38-2.05,2.36c-.68.79-1.26,1.66-1.9,2.48a45.74,45.74,0,0,0-3.5,5.15c-.52.9-1,1.8-1.51,2.71l-.72,1.37c-.23.46-.41.95-.6,1.42a.62.62,0,0,1-.81.35l-.11-.06h0l-2-1.37-2-1.39,1-.77q.39,1.73.85,3.4c.31,1.11.64,2.21,1,3.28a49.06,49.06,0,0,0,2.49,6.29h0a.62.62,0,0,1-.32.85.7.7,0,0,1-.78-.18c-.92-1-1.81-2.11-2.71-3.19s-1.78-2.19-2.65-3.31c.33-.19.69-.37,1-.55a14.32,14.32,0,0,1,.37,5.4,23.25,23.25,0,0,1-1.48,5c-.64,1.61-1.44,3.13-2.22,4.66-.42.75-.75,1.54-1.09,2.33S197.55,249.83,197.26,250.64Z"/><path class="cls-9" d="M222.15,207.37c.59-.63,1.2-1.24,1.83-1.83a21.72,21.72,0,0,1,2-1.62c1.39-1,2.71-2.1,4-3.16a17.38,17.38,0,0,0,3.6-3.51,22.17,22.17,0,0,0,1.36-2.08,12.47,12.47,0,0,0,1-2.29.63.63,0,0,1,.76-.42.57.57,0,0,1,.42.5v0q.16,2.11.4,4.18c.16,1.38.35,2.75.54,4.1-.43,0-.87-.08-1.28-.07a51.82,51.82,0,0,1,1.32-6.66c.3-1.11.63-2.28,1-3.37s.82-2.17,1.28-3.26h0a.74.74,0,0,1,.92-.4.65.65,0,0,1,.39.39l.82,2.3.82,2.3-.94-.32q1.36-.82,2.76-1.59c.93-.51,1.92-.9,2.89-1.32A48.36,48.36,0,0,1,254,187.1l3-.89c1-.31,2-.52,3.05-.76,2-.45,4.06-1,6.12-1.35-2,.55-4,1.27-6,1.84-1,.3-2,.57-3,.94l-2.95,1a54.93,54.93,0,0,0-5.76,2.37c-.93.45-1.88.86-2.78,1.37s-1.78,1-2.64,1.6a.64.64,0,0,1-.88-.19l-.06-.11v0l-.9-2.27-.87-2.28h1.31q-.67,1.62-1.24,3.23a34.21,34.21,0,0,0-1,3.28,57.93,57.93,0,0,0-1.38,6.57h0a.62.62,0,0,1-.72.51.7.7,0,0,1-.55-.57c-.25-1.4-.37-2.72-.53-4.11s-.26-2.77-.35-4.17l1.17.11a14.43,14.43,0,0,1-2.72,4.65,17.07,17.07,0,0,1-3.91,3.48c-1.4,1-2.79,2-4.24,2.91a21.39,21.39,0,0,0-2.12,1.46C223.45,206.25,222.79,206.79,222.15,207.37Z"/><path class="cls-9" d="M266.23,184.11c.83-.24,1.66-.46,2.51-.65s1.68-.37,2.53-.51c1.71-.24,3.4-.49,5.06-.87a20.56,20.56,0,0,0,4.77-1.56,13.67,13.67,0,0,0,3.91-3,.61.61,0,0,1,.85-.06.58.58,0,0,1,.18.63v0q-.7,2-1.34,4c-.43,1.31-.84,2.65-1.24,4l-1.16-.57c.61-1,1.25-1.93,1.92-2.85s1.37-1.81,2.09-2.71,1.49-1.77,2.28-2.65l1.2-1.3,1.25-1.22h0a.73.73,0,0,1,1,0,.66.66,0,0,1,.2.52l-.15,2.44-.15,2.43-.74-.67q1.58-.2,3.16-.33a25.22,25.22,0,0,1,3.17-.12q1.59,0,3.17.09l1.58.08c.53,0,1,.12,1.57.18l3.13.41c1,.12,2.07.33,3.1.55l3.08.63c1,.18,2,.52,3,.76-1-.14-2-.4-3.09-.49l-3.1-.4c-1-.15-2.06-.3-3.11-.35l-3.11-.25c-.52,0-1-.08-1.56-.1h-1.56c-1,0-2.08,0-3.11,0a28.82,28.82,0,0,0-3.09.21c-1,.11-2,.24-3.06.39a.65.65,0,0,1-.73-.53.64.64,0,0,1,0-.12v0l.07-2.44.09-2.44,1.21.52c-.83.81-1.64,1.61-2.41,2.47s-1.51,1.75-2.24,2.63a58.55,58.55,0,0,0-4,5.42h0a.63.63,0,0,1-.9.18.69.69,0,0,1-.26-.76c.4-1.34.84-2.67,1.28-4s.92-2.62,1.4-3.94l1,.59a13,13,0,0,1-2.05,1.76,13.76,13.76,0,0,1-2.33,1.38,20.12,20.12,0,0,1-5.06,1.4c-1.71.3-3.42.43-5.14.56-.86.07-1.7.2-2.55.31S267.08,183.94,266.23,184.11Z"/><path class="cls-9" d="M316.2,181.73c.85.14,1.7.31,2.54.5s1.64.52,2.46.79l2.43.83c.82.25,1.58.63,2.39.89a20.8,20.8,0,0,0,2.43.71c.82.19,1.6.45,2.44.56a13.07,13.07,0,0,0,2.53.15,17.84,17.84,0,0,0,2.5-.21.64.64,0,0,1,.72.49.57.57,0,0,1-.25.6h0q-1.8,1.11-3.5,2.28c-1.13.75-2.26,1.61-3.34,2.49l-.53-1.1a32.52,32.52,0,0,1,3.15-1.24q1.6-.47,3.3-.84c1.13-.24,2.31-.47,3.48-.61s2.33-.22,3.53-.27h0a.77.77,0,0,1,.79.66.64.64,0,0,1-.18.52l-1.72,1.74-1.71,1.74-.13-1a26.34,26.34,0,0,1,2.63,1.81q1.24,1,2.42,2.07l1.18,1.07c.37.38.73.77,1.09,1.16q1.07,1.17,2.11,2.37a28.86,28.86,0,0,1,2,2.48l1.85,2.54c.3.43.63.84.91,1.27l.84,1.33,1.68,2.64q-1-1.23-1.91-2.48l-.93-1.26c-.32-.41-.67-.8-1-1.21l-2-2.41-1-1.21c-.33-.4-.71-.76-1.07-1.14l-2.18-2.23c-.37-.37-.72-.74-1.1-1.1l-1.19-1c-.8-.66-1.6-1.31-2.41-1.94a23,23,0,0,0-2.57-1.69.63.63,0,0,1-.22-.87l.07-.1h0l1.64-1.81L342,188l.62,1.18q-1.78.1-3.49.3l-1.69.22-1.7.34q-1.68.36-3.28.81l-1.57.47c-.52.2-1,.41-1.54.63h0a.54.54,0,0,1-.77-.33.74.74,0,0,1,.24-.76c1.06-.88,2.18-1.71,3.34-2.53s2.32-1.52,3.53-2.26l.45,1.1a13.82,13.82,0,0,1-2.72.1,15.24,15.24,0,0,1-2.71-.25,18.22,18.22,0,0,1-2.52-.7,21.42,21.42,0,0,1-2.44-.85c-.8-.31-1.55-.74-2.35-1l-2.36-1c-.79-.32-1.56-.71-2.38-1S317,181.94,316.2,181.73Z"/><path class="cls-9" d="M356.18,210.22a16.93,16.93,0,0,1,1.49,2.11l1.27,2.25,1.26,2.24.65,1.1.61,1.12a17.29,17.29,0,0,0,3,4,14,14,0,0,0,4.09,2.75.61.61,0,0,1,.33.79.58.58,0,0,1-.54.37h0q-2.1,0-4.18,0L360,227c.07-.43.11-.84.17-1.27,1.13.25,2.21.57,3.28.92s2.15.72,3.23,1.12,2.16.85,3.24,1.31,2.19,1,3.21,1.5h0a.73.73,0,0,1,.3.95.67.67,0,0,1-.43.36l-2.35.64-2.35.64.41-.92c.9,1.91,1.72,3.87,2.44,5.86a46.53,46.53,0,0,1,1.76,6.07l.73,3.06c.23,1,.49,2,.63,3.07.34,2.07.68,4.13,1.05,6.18-.57-2-1.08-4-1.55-6.07-.21-1-.53-2-.82-3l-.87-3a52.52,52.52,0,0,0-2-5.91c-.79-1.92-1.61-3.82-2.53-5.65a.66.66,0,0,1,.27-.86l.11,0h0l2.34-.71,2.33-.69-.12,1.31c-1-.53-2-1-3.12-1.48s-2.14-.88-3.21-1.28q-3.2-1.22-6.38-2.1h0a.63.63,0,0,1-.47-.78.69.69,0,0,1,.63-.49c1.4-.06,2.82-.08,4.18-.06s2.77,0,4.17.08l-.24,1.15a13,13,0,0,1-2.32-1.38,12.38,12.38,0,0,1-1-.86c-.34-.3-.68-.6-1-.92a17.14,17.14,0,0,1-3-4.33l-.56-1.17-.59-1.14-1.11-2.32-1.09-2.33A17.59,17.59,0,0,0,356.18,210.22Z"/><path class="cls-9" d="M375.32,256.54c.23.83.44,1.67.61,2.51s.24,1.71.35,2.56c.21,1.71.42,3.41.77,5.07a23,23,0,0,0,1.55,4.77,11.48,11.48,0,0,0,3,3.87.6.6,0,0,1,.08.84.58.58,0,0,1-.63.18h0l-4-1.29-4-1.23.6-1.18q2.83,1.88,5.57,4c.91.71,1.81,1.45,2.7,2.2s1.8,1.53,2.62,2.33h0a.71.71,0,0,1,0,1,.68.68,0,0,1-.51.22l-2.44,0-2.44-.06.65-.76c.32,2.08.55,4.19.68,6.29s.25,4.2.2,6.3l-.12,3.14-.16,3.13c-.1,2.09-.21,4.17-.27,6.26-.14-2.09-.2-4.18-.23-6.26l0-3.13,0-3.13c-.08-2.08-.26-4.15-.45-6.22s-.47-4.12-.83-6.14a.65.65,0,0,1,.5-.75h5l-.49,1.2c-.82-.78-1.66-1.55-2.56-2.29s-1.79-1.46-2.69-2.17q-2.7-2.12-5.49-4h0a.65.65,0,0,1-.16-.91.69.69,0,0,1,.76-.26c1.32.41,2.64.85,4,1.29l4,1.36-.57,1a12.59,12.59,0,0,1-3.13-4.35,23.08,23.08,0,0,1-1.39-5.07c-.27-1.72-.36-3.44-.46-5.16,0-.86-.08-1.72-.16-2.58S375.48,257.39,375.32,256.54Z"/><path class="cls-8" d="M344.66,354.29c.9-.35,1.81-.65,2.69-1,.45-.17.9-.36,1.33-.57s.89-.38,1.31-.62a23.7,23.7,0,0,0,4.82-3.14,14,14,0,0,0,3.48-4.33,9.74,9.74,0,0,0,1-5.06.64.64,0,0,1,.55-.68.57.57,0,0,1,.59.29v0c.64,1.25,1.27,2.54,1.84,3.86s1.11,2.66,1.59,4l-1.47.53a69.63,69.63,0,0,0-.42-7.42c-.14-1.21-.27-2.39-.46-3.57s-.37-2.33-.59-3.47h0a.71.71,0,0,1,.54-.81.66.66,0,0,1,.54.11l2,1.44,1.95,1.47-1,.31c1-2.08,2.05-4.16,3-6.26s1.88-4.21,2.75-6.35c.42-1.07.84-2.15,1.21-3.24s.75-2.19,1.08-3.3a55.18,55.18,0,0,0,1.62-6.77,45.15,45.15,0,0,1-1.13,6.91c-.27,1.13-.57,2.27-.9,3.38s-.7,2.22-1.07,3.33c-.77,2.2-1.64,4.36-2.54,6.5s-1.89,4.24-2.88,6.34a.69.69,0,0,1-.88.38l-.11-.06h0l-2-1.47-2-1.47,1.09-.71c.22,1.13.45,2.3.64,3.46s.38,2.36.51,3.56a73.64,73.64,0,0,1,.49,7.42h0a1,1,0,0,1-.76.91.58.58,0,0,1-.71-.39c-.44-1.41-.87-2.76-1.41-4.11s-1.06-2.64-1.67-3.93l1.14-.37a10.76,10.76,0,0,1-1.29,5.6,14.49,14.49,0,0,1-3.92,4.5,23.25,23.25,0,0,1-5.12,3c-.91.36-1.8.73-2.73,1S345.58,354,344.66,354.29Z"/><path class="cls-8" d="M374.63,309.74c.1-1,.16-1.92.28-2.88s.2-1.92.25-2.88a36.61,36.61,0,0,0,0-5.74A18.71,18.71,0,0,0,374,292.8a11.72,11.72,0,0,0-3-4.34.68.68,0,0,1-.09-.9.55.55,0,0,1,.63-.2h0c1.34.47,2.69,1,4,1.48s2.67,1,4,1.59l-.61,1.35-5.6-4.74-2.77-2.36-2.75-2.34h0a.76.76,0,0,1-.12-1,.65.65,0,0,1,.49-.27l2.44-.14,2.44-.12-.56.88c-.55-2.27-1.09-4.54-1.57-6.82l-1.5-6.8-.82-3.38c-.3-1.12-.57-2.25-.89-3.36-.64-2.23-1.33-4.45-2.16-6.63a62.7,62.7,0,0,1,2.64,6.48c.39,1.1.72,2.22,1.09,3.33l1,3.36c.61,2.25,1.18,4.5,1.74,6.75l1.72,6.73a.69.69,0,0,1-.42.86l-.12,0h0l-2.44.15-2.44.14.36-1.3,2.75,2.3,2.77,2.32,5.56,4.73h0a.87.87,0,0,1,.15,1.09.61.61,0,0,1-.77.26c-1.32-.57-2.63-1.15-4-1.7s-2.65-1.08-4-1.6l.55-1.1a12.81,12.81,0,0,1,3.13,4.89,19.08,19.08,0,0,1,1,5.82,34.65,34.65,0,0,1-.32,5.84c-.11,1-.3,1.91-.44,2.86Z"/><path class="cls-8" d="M365.6,254.66c-.43-.86-.79-1.76-1.19-2.63l-1.16-2.65-1.24-2.6c-.43-.86-.92-1.68-1.41-2.49a17.43,17.43,0,0,0-1.66-2.29,12.38,12.38,0,0,0-2-1.94,10.37,10.37,0,0,0-4.72-2.22.66.66,0,0,1-.52-.72.56.56,0,0,1,.43-.49h0q2.06-.43,4.19-.79c1.41-.23,2.86-.47,4.29-.62l.15,1.51c-2.41-.52-4.89-.92-7.25-1.31l-3.58-.52c-1.16-.18-2.38-.28-3.53-.42h0a.72.72,0,0,1-.63-.76.68.68,0,0,1,.26-.49l1.94-1.48,2-1.45v1.05c-.84-.81-1.71-1.58-2.57-2.36s-1.71-1.56-2.57-2.33l-1.28-1.17-1.32-1.12-1.31-1.13-1.35-1.08c-.89-.73-1.79-1.47-2.73-2.13S335,218.6,334,218s-1.92-1.3-2.92-1.89l-3-1.74q1.59.73,3.16,1.5c1,.52,2,1.13,3.06,1.71s2,1.25,3,1.88,1.92,1.33,2.85,2l1.41,1,1.36,1.09,1.37,1.08,1.33,1.13c.89.74,1.79,1.48,2.64,2.27s1.76,1.51,2.61,2.3a.69.69,0,0,1,.12,1l-.09.08h0l-2,1.46-2,1.46-.38-1.26,3.52.37c1.19.13,2.35.31,3.56.48s2.41.38,3.61.6,2.45.43,3.65.69h0a.91.91,0,0,1,.69.9.6.6,0,0,1-.54.6c-1.45.14-2.86.27-4.29.46s-2.85.41-4.24.66l-.07-1.22a11.91,11.91,0,0,1,5.14,2.63,12.66,12.66,0,0,1,2,2.17,19.07,19.07,0,0,1,1.63,2.48c.47.87.93,1.73,1.31,2.63l1.1,2.69,1,2.72C365,252.84,365.24,253.77,365.6,254.66Z"/><path class="cls-11" d="M233.28,355.37c13.66,3.42,24.77-25.64,53.81-25.64s28.17,25.64,50.38,25.64"/><path class="cls-8" d="M249.08,213.91c-1,.18-1.92.33-2.89.46s-1.91.4-2.87.58a21.62,21.62,0,0,0-2.81.81,15.73,15.73,0,0,0-2.68,1.12c-.43.21-.86.44-1.27.67a13,13,0,0,0-1.17.82,11.8,11.8,0,0,0-2,1.88,12.05,12.05,0,0,0-1.47,2.23,9.73,9.73,0,0,0-.78,2.47.65.65,0,0,1-.71.53.56.56,0,0,1-.5-.43v0q-.47-2.05-.82-4.2l-.33-2.16c-.08-.71-.16-1.43-.21-2.16l1.56-.17c-.3,1.26-.61,2.45-.84,3.68s-.43,2.46-.61,3.65-.31,2.43-.45,3.6-.23,2.36-.31,3.54h0a.72.72,0,0,1-.73.67.68.68,0,0,1-.5-.24l-1.55-1.88-1.52-1.91,1.05-.06c-.77.89-1.55,1.76-2.29,2.68s-1.53,1.77-2.26,2.69c-1.51,1.79-3,3.63-4.4,5.48-.7.94-1.44,1.85-2.11,2.81s-1.38,1.9-2,2.87l-1.95,2.94-1.83,3q.77-1.59,1.59-3.16l1.76-3.07,1.89-3c.63-1,1.33-1.94,2-2.92q2-2.89,4.22-5.66c.7-.95,1.45-1.85,2.19-2.76l1.1-1.38,1.13-1.35a.69.69,0,0,1,1-.16l.09.09h0l1.53,1.91,1.53,1.91-1.24.44.25-3.56.41-3.59c.14-1.24.38-2.4.6-3.64s.47-2.49.79-3.7h0a1,1,0,0,1,1-.71.58.58,0,0,1,.6.55c.08,1.47.17,2.92.33,4.33s.4,2.87.66,4.25l-1.21.08a12.18,12.18,0,0,1,1-2.72,11.92,11.92,0,0,1,1.71-2.43,11.42,11.42,0,0,1,2.3-2c.42-.29.84-.57,1.29-.82s.91-.44,1.37-.65.93-.4,1.39-.59,1-.29,1.44-.43a22,22,0,0,1,2.9-.66c1-.12,1.94-.32,2.92-.39S248.11,214,249.08,213.91Z"/><path class="cls-8" d="M207.74,249.87c-.42.88-.84,1.76-1.3,2.62s-.92,1.72-1.35,2.59a50.61,50.61,0,0,0-2.45,5.26,18.73,18.73,0,0,0-1.28,5.49,11.56,11.56,0,0,0,.84,5.24.7.7,0,0,1-.31.86.55.55,0,0,1-.65-.08h0q-1.51-1.5-3-3.05c-1-1-2-2.09-2.95-3.16l1.14-1,3,6.73,1.51,3.34c.48,1.1,1,2.21,1.51,3.3h0a.78.78,0,0,1-.32,1,.66.66,0,0,1-.56,0l-2.27-.89-2.26-.92.88-.58c-.46,2.32-.92,4.63-1.42,6.93s-.94,4.59-1.37,6.89c-.18,1.15-.41,2.3-.52,3.46s-.26,2.32-.34,3.48a33.31,33.31,0,0,0,.46,7A23.1,23.1,0,0,1,194,301a22.82,22.82,0,0,1-.27-3.54c0-1.18,0-2.37.14-3.54s.24-2.35.37-3.52c.32-2.34.71-4.66,1.13-7l1.25-6.92a.7.7,0,0,1,.75-.61l.12,0h0l2.28.89,2.27.89-.88,1-1.53-3.26-1.52-3.3-3-6.7h0a.89.89,0,0,1,.33-1.07.61.61,0,0,1,.81.09c1,1.09,1.88,2.17,2.85,3.24s1.94,2.12,2.92,3.16l-1,.77a13,13,0,0,1-.73-5.81,19.22,19.22,0,0,1,1.59-5.77,46.32,46.32,0,0,1,2.77-5.2q.74-1.26,1.52-2.49C206.76,251.55,207.25,250.71,207.74,249.87Z"/><path class="cls-8" d="M194.72,304.45c.27.94.43,1.9.73,2.83l.76,2.82a39.54,39.54,0,0,0,2,5.45,17.16,17.16,0,0,0,3.12,4.69,11.69,11.69,0,0,0,4.44,2.86.69.69,0,0,1,.45.79.54.54,0,0,1-.49.43h0c-1.43.1-2.87.18-4.29.23s-2.87.08-4.32.06v-1.5c2.41.76,4.7,1.55,7.07,2.24l3.48,1.07,3.48,1h0a.77.77,0,0,1,.53.88.66.66,0,0,1-.33.45l-2.16,1.14L207,331l.15-1c.71.94,1.44,1.87,2.18,2.79l2.14,2.81c1.41,1.88,2.87,3.71,4.31,5.56l2.24,2.71,2.33,2.63c.8.85,1.64,1.67,2.47,2.51s1.75,1.56,2.64,2.34c-.95-.7-1.91-1.39-2.83-2.13s-1.79-1.55-2.65-2.36l-2.5-2.51-2.37-2.63q-2.3-2.68-4.52-5.42c-.77-.89-1.47-1.83-2.21-2.74s-1.49-1.81-2.21-2.73a.7.7,0,0,1,0-1l.1-.07h0l2.16-1.14,2.16-1.13.21,1.34-3.46-1c-1.18-.32-2.31-.67-3.48-1l-3.52-1.08-3.51-1.16h0a.92.92,0,0,1-.59-1,.6.6,0,0,1,.61-.53c1.46,0,2.91.06,4.35.06s2.86,0,4.28-.07l-.06,1.22a12.73,12.73,0,0,1-4.83-3.31,18,18,0,0,1-3.11-5.12,37.36,37.36,0,0,1-1.77-5.65l-.57-2.88C195,306.38,194.91,305.4,194.72,304.45Z"/><path class="cls-12" d="M310.55,364.77c0,7.55-10.33,13.67-23.07,13.67s-23.07-6.12-23.07-13.67"/><path class="cls-9" d="M379.75,306.65c0,1.25-.06,2.5-.15,3.74s-.2,2.49-.38,3.72c-.33,2.47-.63,4.93-.88,7.37a33.25,33.25,0,0,0-.13,3.66,22.43,22.43,0,0,0,.26,3.59,18,18,0,0,0,.89,3.44,16.91,16.91,0,0,0,1.48,3.15.92.92,0,0,1-.24,1.2.74.74,0,0,1-.89,0l0,0-4.63-3.38-4.66-3.29,1.21-1.4c2,2.48,3.84,5.07,5.63,7.76.89,1.35,1.76,2.74,2.56,4.14s1.6,2.84,2.37,4.29h0a1.08,1.08,0,0,1-.35,1.38.86.86,0,0,1-.74.1l-3.13-1.06L374.82,344l1.13-.8a79.87,79.87,0,0,1-1.67,9q-.58,2.21-1.22,4.41l-.65,2.19-.74,2.16-1.5,4.3-1.66,4.23-.83,2.11-.89,2.09L365,377.87l1.41-4.31.74-2.14.69-2.16,1.4-4.31,1.29-4.34q.65-2.17,1.19-4.36c.37-1.46.72-2.92,1.05-4.38.56-2.95,1.16-5.88,1.42-8.85a.9.9,0,0,1,.94-.84l.16,0h0l3.15,1,3.14,1-1.08,1.49q-1.16-2.15-2.37-4.23c-.82-1.39-1.63-2.73-2.51-4.08-1.75-2.69-3.54-5.26-5.48-7.73h0a1,1,0,0,1,.13-1.33.88.88,0,0,1,1.09-.06c1.56,1.09,3.11,2.22,4.65,3.36l4.56,3.47-1.15,1.18a20.37,20.37,0,0,1-2.34-7.29,21.71,21.71,0,0,1-.12-3.83,37.46,37.46,0,0,1,.32-3.77c.37-2.49.84-4.92,1.31-7.36.26-1.22.47-2.44.64-3.66S379.63,307.9,379.75,306.65Z"/><path class="cls-9" d="M365,377.86c-.41,1.18-.87,2.34-1.36,3.49s-1,2.29-1.57,3.4l-3.3,6.64a38.32,38.32,0,0,0-2.54,6.81,28.67,28.67,0,0,0-.66,3.53,22.89,22.89,0,0,0-.08,3.6.94.94,0,0,1-.78,1,.74.74,0,0,1-.79-.41v0c-.84-1.74-1.64-3.43-2.58-5.13s-1.9-3.31-2.89-4.89l1.64-.64q.63,2.15,1.1,4.49a40.7,40.7,0,0,1,.68,4.76c.15,1.6.28,3.26.3,4.88s0,3.3,0,5h0a1.14,1.14,0,0,1-1,1.05.85.85,0,0,1-.71-.28l-2.18-2.47L346,410.16c.46,0,.93-.08,1.39-.14-.92,1.23-1.9,2.42-2.89,3.59s-2.11,2.25-3.19,3.34S339,419,337.88,420s-2.43,1.88-3.65,2.79-2.55,1.69-3.82,2.53-2.63,1.54-4,2.27l-2,1.08-2.07,1c-1.37.64-2.73,1.29-4.16,1.81,1.37-.64,2.67-1.41,4-2.15l2-1.09,1.92-1.2c1.28-.79,2.58-1.57,3.78-2.47s2.49-1.69,3.65-2.67S335.91,420,337,419s2.22-2,3.26-3.1,2-2.19,3-3.32,1.85-2.33,2.73-3.53a.89.89,0,0,1,1.22-.28l.13.11,0,0,2.28,2.38,2.26,2.41c-.55.28-1.15.53-1.73.79.1-1.63.08-3.28,0-4.9s-.12-3.19-.28-4.8-.33-3.16-.54-4.7-.65-3-1.06-4.47h0a.81.81,0,0,1,.63-1,.93.93,0,0,1,1,.39c1,1.56,2,3.17,2.87,4.85s1.78,3.44,2.58,5.21l-1.58.53a19.08,19.08,0,0,1,.06-1.92c0-.65.09-1.32.18-2a22.74,22.74,0,0,1,.86-3.76,36.34,36.34,0,0,1,2.94-7c.57-1.11,1.25-2.15,1.84-3.25s1.23-2.15,1.86-3.22,1.23-2.15,1.8-3.26S364.49,379,365,377.86Z"/><path class="cls-9" d="M318.2,431.43c-1.12.55-2.25,1.1-3.41,1.54l-3.56,1.15c-1.17.41-2.4.64-3.59,1s-2.37.68-3.56.95a40.34,40.34,0,0,0-6.87,2.35,18.55,18.55,0,0,0-3.11,1.8,23.56,23.56,0,0,0-2.76,2.2,1,1,0,0,1-1.26,0,.73.73,0,0,1-.21-.86v0q1.18-2.64,2.21-5.28c.69-1.73,1.31-3.54,1.9-5.35l1.59.79c-.86,1.27-1.79,2.59-2.78,3.82s-2.06,2.38-3.18,3.55a43.25,43.25,0,0,1-3.57,3.39q-1.87,1.59-3.91,3.12h0a1.17,1.17,0,0,1-1.49-.09.82.82,0,0,1-.23-.71l.54-3.27.53-3.27,1,1a32,32,0,0,1-9.29-.7,43.86,43.86,0,0,1-4.48-1.27l-2.18-.78-2.12-.92c-1.41-.6-2.76-1.33-4.12-2s-2.64-1.52-4-2.27-2.55-1.64-3.82-2.46l-3.72-2.6,3.92,2.28c1.33.71,2.63,1.48,4,2.18s2.66,1.42,4,2,2.73,1.28,4.14,1.8l2.11.8,2.15.68a41.45,41.45,0,0,0,4.36,1.09,32.32,32.32,0,0,0,8.86.46.89.89,0,0,1,1,.77.79.79,0,0,1,0,.17v0l-.39,3.28L282.5,445l-1.72-.79q2-1.53,3.84-3.11a47.07,47.07,0,0,0,3.51-3.27q1.68-1.73,3.18-3.5.75-.88,1.46-1.77c.47-.62.91-1.26,1.35-1.89h0a.87.87,0,0,1,1.24-.23.93.93,0,0,1,.35,1c-.57,1.79-1.22,3.59-1.91,5.39s-1.45,3.51-2.26,5.27l-1.46-.84a20.11,20.11,0,0,1,3.11-2.28,21.93,21.93,0,0,1,3.42-1.83,39.68,39.68,0,0,1,7.23-2.12c1.22-.22,2.41-.55,3.63-.76s2.44-.4,3.63-.73l3.6-.88C315.88,432.32,317,431.88,318.2,431.43Z"/><path class="cls-9" d="M248.81,426.16c-1.06-.65-2.1-1.35-3.12-2.07s-2-1.53-2.95-2.31-1.89-1.61-2.86-2.39L237,417.06a32.09,32.09,0,0,0-6.12-3.91,18.9,18.9,0,0,0-6.79-1.81.94.94,0,0,1-.85-.89.74.74,0,0,1,.51-.73h0q2.74-.9,5.43-1.85c1.78-.62,3.58-1.33,5.35-2l.44,1.78q-2.35.19-4.75.26t-4.8,0c-1.63,0-3.23-.18-4.86-.34s-3.28-.36-4.91-.63h0a1.11,1.11,0,0,1-.92-1.12.85.85,0,0,1,.36-.66l2.71-1.88,2.71-1.88,0,1.39a62.86,62.86,0,0,1-6.21-6.77c-.95-1.2-1.89-2.41-2.76-3.67s-1.75-2.5-2.54-3.8-1.61-2.58-2.36-3.91l-1.12-2-1.06-2c-1.43-2.67-2.7-5.42-3.93-8.18,1.48,2.64,2.95,5.28,4.53,7.85l1.17,1.94,1.23,1.9c.8,1.28,1.65,2.52,2.51,3.76s1.75,2.45,2.66,3.64,1.86,2.36,2.83,3.51a68.64,68.64,0,0,0,6.21,6.45.91.91,0,0,1,.11,1.26l-.12.11h0l-2.64,2-2.66,1.94-.56-1.78c1.62.24,3.21.47,4.82.62s3.21.25,4.79.33a81.48,81.48,0,0,0,9.44-.12h0a.94.94,0,0,1,1,.85.9.9,0,0,1-.56.93c-1.76.68-3.56,1.31-5.37,1.94s-3.63,1.21-5.47,1.78l-.32-1.63a19.6,19.6,0,0,1,3.77.79,19,19,0,0,1,3.58,1.45,32.46,32.46,0,0,1,6.21,4.36c.94.82,1.85,1.68,2.76,2.52s1.78,1.74,2.7,2.55,1.81,1.69,2.76,2.5S247.8,425.42,248.81,426.16Z"/><path class="cls-9" d="M200.56,372.4a37.14,37.14,0,0,1-1.63-3.37c-.51-1.14-.88-2.34-1.32-3.5s-.73-2.37-1.12-3.54-.66-2.37-1-3.53-.67-2.34-1.09-3.49a29.15,29.15,0,0,0-1.27-3.39,16.89,16.89,0,0,0-4-5.69.9.9,0,0,1-.09-1.21.75.75,0,0,1,.85-.24h0l5.37,2,5.38,2-.82,1.69c-2.54-1.93-5.06-3.94-7.49-6-1.22-1.05-2.42-2.14-3.6-3.25s-2.34-2.24-3.5-3.39h0a1,1,0,0,1-.06-1.4.87.87,0,0,1,.69-.31l3.3.09,3.3.11-.85,1.09a90.84,90.84,0,0,1-1.09-9.08q-.33-4.55-.36-9.1v-4.54l.08-4.54q.1-4.53.28-9.06.23,4.53.4,9.06l.18,4.53.21,4.52c.18,3,.37,6,.69,9s.72,6,1.29,8.88a.9.9,0,0,1-.66,1.07l-.17,0h0l-3.3,0-3.3,0,.61-1.71q1.72,1.69,3.48,3.32c1.17,1.09,2.37,2.14,3.57,3.19q3.59,3.15,7.36,6h0a1,1,0,0,1,.21,1.35.87.87,0,0,1-1,.34l-5.35-2.07L189.33,346l.79-1.44A18.79,18.79,0,0,1,194.3,351a31.16,31.16,0,0,1,1.18,3.59c.35,1.19.66,2.39.93,3.59s.55,2.4.86,3.59.54,2.41.9,3.58.63,2.39,1.06,3.55S200,371.27,200.56,372.4Z"/><path class="cls-13" d="M278.93,193c-10.26,0-24.78,2-29.06,5.72"/><path class="cls-14" d="M278.93,193c-.51,0-1,0-1.54,0h-1.54a27.64,27.64,0,0,0-3.05.08,9.34,9.34,0,0,0-2.89.72,6.08,6.08,0,0,0-2.29,1.75.34.34,0,0,1-.48,0,.35.35,0,0,1-.11-.37h0l.75-2.38c.26-.79.52-1.59.81-2.37l.72.37-2.47,3.3-1.24,1.62-1.24,1.6h0a.38.38,0,0,1-.54.06.41.41,0,0,1-.15-.29l-.09-1.45-.08-1.45.47.34c-1.21.3-2.42.58-3.63.81l-3.62.76-1.79.43c-.59.17-1.18.33-1.76.52a12.43,12.43,0,0,0-3.31,1.61,11.38,11.38,0,0,1,3.2-1.89c.58-.23,1.17-.43,1.75-.64s1.19-.36,1.79-.53c1.2-.33,2.4-.61,3.6-.91s2.4-.58,3.59-.9a.37.37,0,0,1,.46.26.38.38,0,0,1,0,.07h0l.09,1.45.09,1.45-.7-.23,1.21-1.6,1.22-1.62,2.47-3.27h0a.42.42,0,0,1,.58-.09.39.39,0,0,1,.14.46l-.86,2.34-.82,2.36-.59-.34a6.72,6.72,0,0,1,2.58-1.84,9.51,9.51,0,0,1,3.09-.62,24.94,24.94,0,0,1,3.1.1l1.53.13C277.91,192.92,278.42,193,278.93,193Z"/><path class="cls-13" d="M301.77,192.1c19.46-2.1,34,12.43,34,12.43"/><path d="M301.77,192.11l1.91-.12c.64,0,1.27-.08,1.91-.06,1.27.1,2.54.1,3.78.24.62.07,1.24.13,1.85.17l.91,0,.89.08a22.37,22.37,0,0,0,3.23,0,1,1,0,0,1,.6.19c.11.09.11.17,0,.22h0l-1.56.77c-.51.27-1,.58-1.51.87l-.73-.39q.88-.22,1.81-.42c.62-.13,1.24-.18,1.89-.27s1.32-.15,2-.18,1.35,0,2,0h0a1.12,1.12,0,0,1,.68.27c.08.08.1.15.06.2l-.47.63-.47.63-.41-.38a20.41,20.41,0,0,1,2.18.85c.72.31,1.44.61,2.12,1a42.72,42.72,0,0,1,4,2.34c.64.44,1.28.87,1.91,1.32s1.24.91,1.84,1.41a42.17,42.17,0,0,1,3.46,3.07c-1.14-1-2.33-2-3.56-2.95-.6-.48-1.25-.9-1.87-1.36s-1.28-.85-1.93-1.27a45.55,45.55,0,0,0-4-2.24c-.68-.36-1.39-.64-2.09-.94a20.27,20.27,0,0,0-2.13-.81c-.24-.08-.43-.23-.42-.34v0h0l.42-.65.43-.64.74.47q-1,0-2,0l-1,0-1,.1a23.81,23.81,0,0,0-3.67.61h0a1,1,0,0,1-.66-.13c-.14-.1-.16-.2-.06-.26.49-.29,1-.58,1.54-.87s1.07-.57,1.61-.8l.61.41c-.54,0-1.1,0-1.71,0a18.13,18.13,0,0,1-1.86-.08c-1.26-.16-2.57-.2-3.83-.4s-2.53-.2-3.79-.33c-.63,0-1.26,0-1.89,0Z"/></g></g></svg>