<svg xmlns="http://www.w3.org/2000/svg" viewBox="0 0 600 600"><defs><style>.cls-1{font-size:69.07px}.cls-1,.cls-2,.cls-6{font-family:Athelas-Italic,Athelas}.cls-1,.cls-2,.cls-4,.cls-6{font-style:italic}.cls-2{font-size:54.94px}.cls-11,.cls-3{fill:none}.cls-10,.cls-14,.cls-3{stroke:#000}.cls-10,.cls-3{stroke-miterlimit:10}.cls-3{stroke-width:4px}.cls-4{font-size:133.23px;font-family:Athelas-BoldItalic,Athelas;font-weight:700}.cls-5{letter-spacing:0}.cls-6{font-size:112.34px}.cls-10,.cls-7{fill:#f7e8d7}.cls-8{fill:#603813}.cls-9{fill:#42210b}.cls-10,.cls-11{stroke-linecap:round}.cls-10{stroke-width:11px}.cls-11{stroke:#42210b;stroke-linejoin:round}.cls-12{fill:#754c24}.cls-13{fill:#331402}.cls-14,.cls-16{fill:#29abe2}.cls-14{fill-opacity:.5;stroke-linejoin:bevel;stroke-width:3px}.cls-15{fill:#fff}</style></defs><title>experimental</title><g id="Layer_1" data-name="Layer 1"><text class="cls-1" transform="translate(74.88 483.46)">ID=log</text><text class="cls-1" transform="matrix(.58 0 0 .58 260.81 506.46)">2</text><text class="cls-2" transform="translate(318.63 462.05)">2D<tspan x="6.34" y="54.94">W</tspan></text><path d="M300.83 525.83a5.44 5.44 0 0 1 .48 2.13 3.06 3.06 0 0 1-1.16 2.41 79.59 79.59 0 0 1-15-46.65q0-22 7.41-40a105.49 105.49 0 0 1 21.84-33 4.6 4.6 0 0 1 .68 1 3.48 3.48 0 0 1 .29 1.56 3.2 3.2 0 0 1-.58 1.84 94.44 94.44 0 0 0-16.51 31 117.21 117.21 0 0 0-5.37 35.38q0 5 .24 10.07t1 10.49a94.1 94.1 0 0 0 2.37 11.27 110 110 0 0 0 4.31 12.5zm98.48-110.61a5.41 5.41 0 0 1-.48-2.13 3.36 3.36 0 0 1 1.16-2.41 80 80 0 0 1 15 46.94q0 22-7.41 39.85a106 106 0 0 1-21.84 32.9 4.61 4.61 0 0 1-.68-1 3.47 3.47 0 0 1-.29-1.56 3.2 3.2 0 0 1 .58-1.84 94.69 94.69 0 0 0 16.51-30.84 115.83 115.83 0 0 0 5.37-35.24q0-5-.24-10.07t-1-10.56a96.81 96.81 0 0 0-2.37-11.41 108.1 108.1 0 0 0-4.31-12.63z"/><path class="cls-3" d="M305 472.52h86.33"/><text class="cls-4" transform="translate(22.24 181.58)">e=<tspan class="cls-5" x="118.57" y="0">m</tspan><tspan x="218.22" y="0">c</tspan></text><text class="cls-4" transform="matrix(.58 0 0 .58 292.02 137.22)">2</text><text class="cls-6" transform="translate(353.18 215.46)">f=ma</text><path class="cls-7" d="M383.68 297.71c0 86.3-54.74 142-98.36 142s-98.37-57.53-98.38-142c0-66.12 44-119.72 98.36-119.72s98.37 53.61 98.38 119.72z"/><path class="cls-8" d="M377.13 238.93c-10.06-24.19-13.3-46.7-39.88-63-26.38-16.19-72.25-12.85-98.55 2.6-26.71 15.69-36.17 42.06-49.24 68.17-14.16 28.3-9.62 57.35-6.46 88.91 6.38 64.75 75.09 136.54 142.34 100.06 63.13-34.28 76.99-136.13 51.79-196.74zm-55.56 146.42c-1.25 4.88-11.73 20.09-13.93 18.29a65.45 65.45 0 0 1-11.07 1.43c-18 .77-39.07-6-48.35-23.14-.07 0 2.05-18.64 9.25-24 13.11-9.71 37.29-3.41 51 2.74 14.11 6.39 17.07 9.15 13.1 24.68zm26-27.48c-14.53 2.85-21.52-7.42-31.5-15.73-19.33-16.09-43.92-14.21-64.19-.74-6.38 4.24-15.46 17.25-26.22 16.73-7.49-.36-19.67-16.27-23.6-21.66-15.19-20.85-20.56-60.14-6.26-81.78a67.87 67.87 0 0 1 4.19-5.62 5.19 5.19 0 0 1 .17-.79A55.88 55.88 0 0 1 226.8 216c5.22-7 9.92-8.89 21.26-3.72 27.22 12.39 44.73 18 72.84 3 55.57-29.61 62.77 87.5 55.3 118.52-6.41-.8-18.5 22.09-28.6 24.07z"/><path class="cls-9" d="M328.53 204.46a8.41 8.41 0 0 1-1.45 4.75 17.78 17.78 0 0 1-3.32 3.73 51.94 51.94 0 0 1-8.22 5.47 88.31 88.31 0 0 0-8.34 5.14 37.09 37.09 0 0 0-7.2 6.8 1.31 1.31 0 0 1-1.75.25 1.07 1.07 0 0 1-.42-1.21c.84-2.62 1.54-5.27 2.11-7.91s1-5.3 1.3-7.92c.7.29 1.43.61 2.15.88a46.45 46.45 0 0 1-6.27 11.44 49.31 49.31 0 0 1-4.51 5.24 54 54 0 0 1-5.39 4.76 1.69 1.69 0 0 1-2.16-.13 1.21 1.21 0 0 1-.35-1l.72-4.7.68-4.71 1.35 1.38a45.1 45.1 0 0 1-12.53-.72 49.21 49.21 0 0 1-11.93-4 51 51 0 0 1-5.44-3.08 38.41 38.41 0 0 1-4.9-3.85 23.08 23.08 0 0 1-4-4.75 10.52 10.52 0 0 1-1.79-5.81 10.53 10.53 0 0 0 2.25 5.51 23.82 23.82 0 0 0 4.19 4.31 37.24 37.24 0 0 0 5 3.43 49.53 49.53 0 0 0 5.41 2.72 50.74 50.74 0 0 0 11.58 3.36 45.57 45.57 0 0 0 11.91.38 1.24 1.24 0 0 1 1.36 1.32l-.39 4.74-.48 4.74-2.5-1.15a53.36 53.36 0 0 0 5.28-4.6 51.52 51.52 0 0 0 4.45-5.06 45.71 45.71 0 0 0 6.38-11 1 1 0 0 1 1.45-.51 1.5 1.5 0 0 1 .69 1.39 69.63 69.63 0 0 1-1.2 7.95 80.24 80.24 0 0 1-2.07 8c-.73-.33-1.44-.64-2.15-1a42.11 42.11 0 0 1 8-7 81 81 0 0 1 8.76-4.84 54.79 54.79 0 0 0 8.38-4.84 17.13 17.13 0 0 0 3.47-3.34 8.25 8.25 0 0 0 1.89-4.56z"/><path class="cls-10" d="M256.54 278.7v19.49m57.54-19.49v19.49"/><path class="cls-9" d="M180.58 297.72c0-.82.08-1.64.17-2.45l.29-2.44c.22-1.62.42-3.24.49-4.85a18.11 18.11 0 0 0-.3-4.76 10.9 10.9 0 0 0-2-4.27.55.55 0 0 1 .11-.79.6.6 0 0 1 .65 0l3.59 2.12 3.6 2.08-.85 1q-2.33-2.41-4.51-5c-.72-.87-1.44-1.76-2.12-2.66s-1.31-1.82-2-2.75a.65.65 0 0 1 .19-.91.69.69 0 0 1 .55-.09l2.36.61 2.36.62-.8.55c.13-2 .36-4 .68-6a54.61 54.61 0 0 1 1.31-5.85l.78-2.88c.28-1 .5-1.92.83-2.86.63-1.89 1.26-3.77 1.85-5.66-.4 1.95-.86 3.88-1.36 5.8-.26 1-.42 1.94-.64 2.9l-.62 2.9c-.37 1.94-.86 3.86-1.05 5.83s-.43 3.92-.51 5.87a.62.62 0 0 1-.66.57h-.12l-2.37-.56-2.37-.57.73-1q1 1.38 2 2.7c.65.89 1.35 1.75 2.08 2.62q2.14 2.59 4.43 5a.6.6 0 0 1 0 .89.71.71 0 0 1-.8.06l-3.56-2.13-3.55-2.19.78-.8a11.89 11.89 0 0 1 1.98 4.63 18 18 0 0 1 .08 5 48.22 48.22 0 0 1-.81 4.85l-.49 2.4c-.15.86-.3 1.66-.4 2.47zm7.28-47.29c.17-.8.37-1.6.59-2.39s.54-1.55.82-2.32c.57-1.53 1.14-3.06 1.57-4.62a20.74 20.74 0 0 0 .81-4.7 11.23 11.23 0 0 0-.93-4.68.56.56 0 0 1 .3-.75.59.59 0 0 1 .64.14l3 3 3 2.9-1 .7q-1.68-2.87-3.16-6c-.51-1-.88-2.05-1.3-3.11s-.78-2.12-1.14-3.21a.67.67 0 0 1 .43-.84.68.68 0 0 1 .55.06l2.1 1.24 2.1 1.25-.91.32a33 33 0 0 1 2.35-5.56c1-1.77 1.94-3.52 3-5.22l1.74-2.44 1.76-2.41.88-1.2 1-1.14 1.91-2.29q-.82 1.24-1.68 2.46l-.86 1.21-.79 1.26-1.59 2.51-1.6 2.5c-.94 1.74-1.86 3.49-2.72 5.26a35.34 35.34 0 0 0-2.14 5.48.61.61 0 0 1-.78.38h-.11l-2.3-1.22-2.12-1.2 1-.78q.55 1.61 1.15 3.17c.4 1 .83 2.06 1.27 3.06.91 2 2 4 3.06 5.92a.58.58 0 0 1-.26.83.72.72 0 0 1-.79-.14c-1-1-2-1.94-2.94-2.92s-1.94-2-2.9-3l1-.59a12.24 12.24 0 0 1 .84 5.13 20.22 20.22 0 0 1-1.09 4.87 48.12 48.12 0 0 1-1.88 4.54c-.34.74-.7 1.48-1 2.24s-.64 1.51-.88 2.3zm19.97-43.25c.45-.68.94-1.35 1.44-2s1.1-1.22 1.65-1.82c1.13-1.18 2.26-2.36 3.27-3.61a17.38 17.38 0 0 0 2.76-3.89 14.13 14.13 0 0 0 1.25-4.63.57.57 0 0 1 .64-.51.6.6 0 0 1 .51.42q.59 2 1.24 3.93c.42 1.28.94 2.62 1.41 3.91l-1.21.17q-.16-1.66-.24-3.36c0-1.1 0-2.2.06-3.32s.15-2.25.28-3.39.28-2.3.48-3.46a.7.7 0 0 1 1.27-.21l1.25 2.09 1.25 2.09c-.32-.05-.65-.13-1-.16a57 57 0 0 1 4.79-3.7 21 21 0 0 1 2.58-1.56q1.33-.72 2.67-1.4c.9-.44 1.77-.93 2.7-1.31l2.75-1.16 2.78-1.09 2.79-1-5.36 2.59-2.66 1.33c-.9.42-1.73 1-2.6 1.44l-2.56 1.5a20.12 20.12 0 0 0-2.47 1.62c-1.57 1.2-3.11 2.41-4.55 3.71a.58.58 0 0 1-.85 0l-.08-.1-1.33-2.05-1.31-2.07c.4-.11.84-.15 1.26-.22a31.08 31.08 0 0 0-.49 3.37c-.12 1.13-.2 2.25-.26 3.36a42 42 0 0 0 .07 6.56.56.56 0 0 1-.57.63.73.73 0 0 1-.65-.47c-.49-1.29-.95-2.6-1.4-3.93s-.84-2.64-1.22-4l1.15-.07a13.48 13.48 0 0 1-.59 2.54 12.12 12.12 0 0 1-1 2.42 16.94 16.94 0 0 1-3.06 3.92 47.7 47.7 0 0 1-3.51 3.41 23.91 23.91 0 0 0-1.78 1.68c-.49.56-1.03 1.17-1.55 1.8zm37.41-28.98a23 23 0 0 1 2.26-1c.77-.28 1.54-.57 2.32-.82 1.56-.49 3.11-1 4.62-1.55a17.66 17.66 0 0 0 4.23-2.23 11.47 11.47 0 0 0 3.17-3.55.55.55 0 0 1 .78-.19.6.6 0 0 1 .27.6c-.21 1.36-.41 2.74-.59 4.12l-.51 4.11-1.19-.42c.85-2 1.79-4.09 2.85-6.07.53-1 1.1-2 1.68-2.94s1.21-1.91 1.85-2.87a.66.66 0 0 1 .93-.17.68.68 0 0 1 .28.47l.29 2.42.29 2.42-.81-.53a42.79 42.79 0 0 1 5.84-1.51c2-.37 4-.64 5.95-.82l3-.22c1-.07 2-.09 3-.13s2-.06 3-.07 2 0 3 0l-5.92.6c-1 .11-2 .19-3 .32l-2.95.37c-2 .3-3.91.61-5.83 1.05a48 48 0 0 0-5.66 1.63.61.61 0 0 1-.77-.39.67.67 0 0 1 0-.12l-.36-2.41-.34-2.42 1.21.3q-.94 1.41-1.81 2.84c-.58.95-1.12 1.94-1.65 2.91a65 65 0 0 0-2.87 6 .58.58 0 0 1-.82.29.71.71 0 0 1-.37-.71c.16-1.37.35-2.73.55-4.1s.42-2.74.65-4.12l1.05.42a12.57 12.57 0 0 1-3.59 3.73 17.4 17.4 0 0 1-4.53 2.11c-1.57.49-3.16.88-4.75 1.26-.8.18-1.58.41-2.37.62a24.4 24.4 0 0 0-2.38.77zm46.44-10.89c.81-.08 1.63-.14 2.45-.15h2.46c1.63.06 3.26.13 4.87.12a18.7 18.7 0 0 0 2.4-.16 13.58 13.58 0 0 0 2.34-.45 12 12 0 0 0 4.24-2.19.56.56 0 0 1 .81.11.6.6 0 0 1 0 .65c-.7 1.19-1.38 2.41-2 3.63s-1.3 2.44-1.93 3.66c-.31-.27-.63-.55-1-.81a56.93 56.93 0 0 1 4.82-4.65c.86-.73 1.75-1.43 2.67-2.12s1.86-1.32 2.84-2a.68.68 0 0 1 1 .75l-.67 2.34-.67 2.34-.54-.79a36.1 36.1 0 0 1 6 .93 44 44 0 0 1 5.76 1.83c.93.38 1.85.79 2.77 1.19s1.8.89 2.67 1.37a48.63 48.63 0 0 1 5.06 3.17c-1.71-1-3.5-1.87-5.28-2.72-.9-.41-1.82-.78-2.73-1.17s-1.85-.71-2.78-1a49.85 49.85 0 0 0-5.71-1.55 39.71 39.71 0 0 0-5.82-.74.6.6 0 0 1-.57-.65.67.67 0 0 1 0-.12l.59-2.37.61-2.36c.34.25.69.48 1 .74-1 .61-1.89 1.28-2.79 1.94s-1.77 1.37-2.62 2.08a55.12 55.12 0 0 0-4.8 4.52.58.58 0 0 1-.86 0 .72.72 0 0 1-.09-.79c.63-1.24 1.29-2.43 2-3.64s1.37-2.41 2.09-3.61l.83.78a13.25 13.25 0 0 1-4.7 2.2 12.82 12.82 0 0 1-2.49.37 20.42 20.42 0 0 1-2.48 0c-1.64-.07-3.26-.27-4.89-.43l-2.44-.23c-.79.01-1.6-.02-2.42-.02zm46.32 8.9c.71.41 1.4.85 2.08 1.31a19.89 19.89 0 0 1 2 1.47c1.24 1.06 2.49 2.1 3.8 3a15.71 15.71 0 0 0 4.05 2.53 19.5 19.5 0 0 0 2.27.74 11.68 11.68 0 0 0 2.38.31.57.57 0 0 1 .55.6.59.59 0 0 1-.39.53q-2 .71-3.89 1.47c-1.28.51-2.54 1-3.79 1.57-.05-.42-.14-.81-.22-1.21a49.4 49.4 0 0 1 6.64-.5c1.13 0 2.28 0 3.43.06s2.25.2 3.39.35a.68.68 0 0 1 .29 1.24l-2 1.37-2 1.37.1-1q1.07 1.07 2.09 2.18a19.94 19.94 0 0 1 1.92 2.33q1.76 2.45 3.37 5c.5.87 1 1.76 1.43 2.63l1.39 2.65c1 1.73 1.72 3.58 2.56 5.38-1-1.7-1.92-3.47-3-5.13l-1.56-2.46c-.52-.84-1-1.7-1.56-2.53-1.16-1.6-2.31-3.21-3.52-4.76a22.15 22.15 0 0 0-1.94-2.21c-.68-.71-1.37-1.4-2.08-2.07a.62.62 0 0 1 0-.87l.09-.08 2-1.44 2-1.42.3 1.23q-1.69-.21-3.34-.33c-1.08-.1-2.26-.07-3.37-.07a60.38 60.38 0 0 0-6.54.4.57.57 0 0 1-.66-.54.72.72 0 0 1 .43-.67c1.28-.58 2.55-1.09 3.82-1.57s2.58-1 3.89-1.41l.14 1.13a12.81 12.81 0 0 1-2.59-.43 19.33 19.33 0 0 1-2.41-.9 15.43 15.43 0 0 1-4.1-2.83c-1.27-1-2.44-2.16-3.6-3.3a20 20 0 0 0-1.83-1.61c-.67-.53-1.31-1.04-2.02-1.51zm31.43 35.46c.42.71.8 1.43 1.17 2.16s.73 1.47 1 2.23c.58 1.53 1.17 3.05 1.87 4.5a18.76 18.76 0 0 0 1.18 2.1q.33.5.7 1c.23.32.46.64.72.94a10.93 10.93 0 0 0 3.75 2.88.56.56 0 0 1 .26.76.6.6 0 0 1-.57.32l-4.16-.25-4.13-.18.33-1.23q3.14 1 6.26 2.36c1 .44 2.07.92 3.11 1.42l1.54.77 1.47.83a.66.66 0 0 1 .23.91.7.7 0 0 1-.45.32l-2.38.5-2.38.49.47-.85c.75 1.86 1.41 3.77 2 5.69q.43 1.44.81 2.89c.21 1 .39 2 .56 2.95l.5 2.95.47 2.94c.37 1.95.51 3.94.76 5.91-.45-1.93-.76-3.89-1.26-5.82l-.67-2.9-.65-2.9-.69-2.88c-.29-.94-.59-1.88-.91-2.82-.64-1.86-1.31-3.71-2.08-5.5a.63.63 0 0 1 .34-.81h.12l2.37-.56 2.37-.54-.22 1.23c-1-.55-1.93-1.08-2.94-1.57s-2.05-.95-3.08-1.39q-3.08-1.34-6.18-2.38a.58.58 0 0 1-.35-.8.73.73 0 0 1 .68-.43c1.37.05 2.74.14 4.11.23l4.14.32-.33 1.08a11.93 11.93 0 0 1-4-3.29 20.44 20.44 0 0 1-2.49-4.33 48.29 48.29 0 0 1-1.59-4.65c-.24-.78-.55-1.53-.84-2.29s-.59-1.56-.94-2.31zM384.47 257c.18.8.32 1.61.45 2.42l.32 2.44.62 4.84a15.53 15.53 0 0 0 1.35 4.57 11.07 11.07 0 0 0 3 3.71.55.55 0 0 1 .07.8.6.6 0 0 1-.63.17l-4-1.27-4-1.22.61-1.11q2.82 1.82 5.56 3.87c.93.68 1.76 1.4 2.61 2.13s1.68 1.48 2.51 2.24a.64.64 0 0 1 0 .93.7.7 0 0 1-.51.21l-2.44-.06-2.44-.07.65-.72c.32 2 .54 4 .66 6q.1 1.5.15 3c0 1 0 2-.05 3l-.13 3-.16 3c-.1 2-.21 4-.28 5.94-.13-2-.2-4-.23-6v-6c0-1 0-2-.09-3s-.16-2-.26-2.95c-.21-2-.45-3.91-.81-5.84a.62.62 0 0 1 .51-.71h4.93l-.44 1.18q-1.24-1.13-2.5-2.2c-.84-.72-1.7-1.41-2.56-2.09a93.28 93.28 0 0 0-5.47-3.87.6.6 0 0 1-.16-.87.71.71 0 0 1 .77-.24c1.32.41 2.64.84 4 1.28l4 1.34-.58 1a12.07 12.07 0 0 1-3.11-4.16 15.54 15.54 0 0 1-1.19-4.86c-.13-1.65-.21-3.28-.31-4.91l-.13-2.44c-.13-.87-.19-1.69-.29-2.48z"/><path class="cls-8" d="M349.84 356.41c.72-.3 1.48-.53 2.21-.82s1.48-.54 2.19-.87a18.81 18.81 0 0 0 2.12-1 15.67 15.67 0 0 0 2-1.25 10.45 10.45 0 0 0 3.06-3.36 7.89 7.89 0 0 0 .92-4.34.45.45 0 0 1 .51-.49.66.66 0 0 1 .53.37c.58 1.24 1.12 2.49 1.63 3.78s1 2.6 1.41 3.93l-1.32.22c0-1.16 0-2.29-.08-3.41s-.14-2.23-.24-3.32-.22-2.16-.36-3.23-.29-2.1-.47-3.13a.49.49 0 0 1 .51-.6.78.78 0 0 1 .5.2l1.8 1.64 1.78 1.67-.94.07 3.06-4.76c1-1.57 2-3.17 3-4.77.48-.81 1-1.61 1.43-2.44s.93-1.64 1.36-2.48c.89-1.67 1.68-3.39 2.42-5.14a45.38 45.38 0 0 1-2 5.35c-.37.87-.78 1.74-1.19 2.59s-.86 1.69-1.3 2.53c-.89 1.67-1.84 3.31-2.81 4.94s-2 3.23-2.94 4.86a.58.58 0 0 1-.83.15l-.1-.08-1.77-1.67-1.78-1.67 1-.4c.19 1 .37 2.08.51 3.13s.3 2.14.4 3.22.2 2.2.25 3.31.1 2.26.1 3.4a.7.7 0 0 1-.68.7.66.66 0 0 1-.64-.48c-.39-1.35-.8-2.68-1.26-4s-1-2.59-1.49-3.83l1.06-.09a9.63 9.63 0 0 1-.26 2.47 9.33 9.33 0 0 1-.94 2.29 11 11 0 0 1-3.46 3.44 14.66 14.66 0 0 1-2.13 1.16 20 20 0 0 1-2.23.89c-.74.28-1.52.46-2.27.7s-1.52.39-2.27.62z"/><path class="cls-8" d="M378.87 322.9c.21-.76.45-1.5.71-2.24l.76-2.23c.24-.74.48-1.49.7-2.24s.38-1.51.52-2.27a17.06 17.06 0 0 0 .22-2.3 11.78 11.78 0 0 0-.22-2.26 8.5 8.5 0 0 0-2.07-4 .46.46 0 0 1 .09-.71.66.66 0 0 1 .65 0q1.83.9 3.65 1.9c1.22.67 2.42 1.35 3.6 2.09l-.87 1c-1.5-1.7-3-3.34-4.55-4.91l-2.3-2.31c-.78-.75-1.55-1.48-2.32-2.18a.49.49 0 0 1 0-.79.78.78 0 0 1 .52-.15l2.43.18 2.43.21-.69.64c-.2-1.88-.37-3.78-.47-5.67s-.18-3.79-.24-5.68c0-.95-.06-1.89-.1-2.84s-.07-1.89-.12-2.84c-.09-1.89-.23-3.78-.43-5.67.4 1.86.71 3.74.94 5.62q.18 1.41.32 2.83c.1.94.19 1.89.26 2.83l.49 5.65c.19 1.88.38 3.75.63 5.64a.59.59 0 0 1-.56.64h-.14l-2.43-.21-2.43-.21.55-.95c.8.69 1.57 1.4 2.34 2.14s1.56 1.49 2.32 2.27 1.53 1.58 2.28 2.4 1.52 1.65 2.26 2.5a.65.65 0 0 1-.07.93.68.68 0 0 1-.8 0c-1.18-.75-2.35-1.49-3.53-2.19s-2.39-1.38-3.59-2l.76-.75a9.31 9.31 0 0 1 2.12 4.46 11.31 11.31 0 0 1 .12 2.45 18 18 0 0 1-.36 2.4c-.19.78-.43 1.55-.68 2.3l-.87 2.21-.95 2.16c-.28.7-.6 1.42-.88 2.15zm1.99-45.31c-.17-.77-.3-1.54-.42-2.32l-.34-2.33a37.84 37.84 0 0 0-.86-4.59 12.72 12.72 0 0 0-1.87-4.16 9 9 0 0 0-3.45-2.92.48.48 0 0 1-.19-.71.65.65 0 0 1 .59-.28q2 .18 4.1.42c1.37.16 2.75.32 4.12.52l-.44 1.21-6.06-2.76-3-1.36-2.94-1.34a.53.53 0 0 1-.24-.79.75.75 0 0 1 .44-.32l2.36-.61 2.37-.59-.44.83q-.61-1.29-1.16-2.61t-1.1-2.62c-.33-.89-.72-1.75-1.06-2.63s-.69-1.76-1.05-2.63-.68-1.76-1.08-2.62l-1.12-2.6c-.82-1.7-1.6-3.43-2.55-5.08a50.69 50.69 0 0 1 3 4.85l1.31 2.53c.44.84.81 1.71 1.23 2.57s.81 1.71 1.19 2.58.8 1.72 1.17 2.58.78 1.72 1.18 2.57.78 1.72 1.21 2.56a.58.58 0 0 1-.31.78h-.12l-2.36.61-2.36.61.2-1.12 2.94 1.3 3 1.33 6 2.76a.61.61 0 0 1 .28.86.7.7 0 0 1-.72.35c-1.37-.21-2.71-.43-4.09-.62s-2.73-.36-4.09-.52l.42-1a10 10 0 0 1 3.66 3.34 13 13 0 0 1 1.76 4.5 34.2 34.2 0 0 1 .56 4.72l.14 2.35c.05.81.09 1.62.19 2.4zm-15.34-42.92c-.46-.64-.85-1.31-1.29-2l-1.25-2a35.56 35.56 0 0 0-2.7-3.82 12.79 12.79 0 0 0-3.51-2.92 8.79 8.79 0 0 0-4.38-1 .47.47 0 0 1-.5-.52.65.65 0 0 1 .39-.52c1.26-.54 2.55-1.06 3.84-1.55s2.58-1 3.9-1.39l.18 1.29c-2.27.07-4.47.14-6.69.3l-3.24.2-3.21.28a.51.51 0 0 1-.57-.58.77.77 0 0 1 .24-.49l1.76-1.68 1.78-1.66v.95c-1.5-1.16-3.06-2.23-4.51-3.44l-2.25-1.71-1.11-.87-1.14-.83L339 209l-2.34-1.59c-.77-.55-1.57-1-2.39-1.53l-2.45-1.45q1.3.58 2.58 1.21a27 27 0 0 1 2.52 1.34l2.46 1.44 2.38 1.57 1.19.77 1.15.83 2.33 1.62c1.51 1.14 3.08 2.19 4.61 3.31a.59.59 0 0 1 .1.84l-.08.09-1.78 1.67-1.77 1.67-.34-1.07 3.18-.3c1.09-.11 2.15-.17 3.24-.24l3.31-.18c1.11-.05 2.21-.07 3.34-.11a.64.64 0 0 1 .66.65.69.69 0 0 1-.48.64c-1.33.42-2.65.84-3.95 1.29s-2.57.9-3.86 1.41l-.09-1.06a9.34 9.34 0 0 1 4.78 1.28 12.87 12.87 0 0 1 3.57 3.28 32.27 32.27 0 0 1 2.48 4.07l1.08 2.1c.38.73.7 1.45 1.09 2.12z"/><path class="cls-11" d="M228.9 357.58c14.84 3.71 26.9-27.84 58.43-27.84s30.59 27.84 54.71 27.84"/><path class="cls-8" d="M246.05 204c-.78.16-1.56.28-2.35.38l-1.19.13-1.17.23c-.78.15-1.56.31-2.33.48s-1.5.5-2.23.79c-.36.14-.72.3-1.08.46a9.78 9.78 0 0 0-1 .61 11.83 11.83 0 0 0-1.76 1.46 8.44 8.44 0 0 0-2 4 .47.47 0 0 1-.61.37.65.65 0 0 1-.43-.49c-.27-1.37-.48-2.71-.65-4.08s-.31-2.75-.39-4.16l1.33.09c-.53 2.31-1 4.44-1.35 6.65l-.46 3.23c-.15 1-.23 2.14-.32 3.18a.5.5 0 0 1-.66.45.78.78 0 0 1-.44-.32l-1.34-2-1.31-2.05.93.16c-1.42 1.28-2.77 2.63-4.2 3.89l-2.07 2c-.71.64-1.39 1.3-2.06 2s-1.38 1.32-2 2l-2 2.08c-.67.68-1.27 1.43-1.9 2.15s-1.26 1.45-1.83 2.22c.49-.83 1.06-1.6 1.61-2.39s1.11-1.58 1.73-2.31l1.84-2.23c.62-.73 1.29-1.42 1.93-2.14l1-1.07 1-1 2-2.06c1.38-1.33 2.71-2.71 4.1-4a.59.59 0 0 1 .85 0l.08.1 1.32 2.06 1.32 2.05-1.1.14.27-3.19c.12-1.06.27-2.12.43-3.21a66.53 66.53 0 0 1 1.33-6.63.71.71 0 0 1 .83-.53.65.65 0 0 1 .51.62c.05 1.42.13 2.82.25 4.2s.28 2.74.48 4.07c-.36-.07-.7-.1-1-.15a9.16 9.16 0 0 1 2.36-4.37 12 12 0 0 1 2-1.48 12.28 12.28 0 0 1 1.09-.59c.38-.15.77-.3 1.16-.43.78-.26 1.57-.49 2.36-.67s1.61-.22 2.41-.33l1.19-.14h1.2c.74-.14 1.53-.18 2.32-.23zm-36.87 25.8c-.42.68-.86 1.33-1.32 2s-.93 1.29-1.38 1.94a32.89 32.89 0 0 0-2.56 4 16.42 16.42 0 0 0-1 2.12 12.32 12.32 0 0 0-.55 2.24 9.09 9.09 0 0 0 .49 4.53.49.49 0 0 1-.35.66.64.64 0 0 1-.62-.2l-2.7-3.14c-.89-1.06-1.8-2.13-2.64-3.21l1.15-.59 2.51 6.21 1.21 3.07 1.19 3a.55.55 0 0 1-.4.75.73.73 0 0 1-.54-.07l-2.13-1.2-2.11-1.21.91-.3c-.63 1.82-1.3 3.63-2 5.4s-1.48 3.54-2.23 5.3c-.39.88-.77 1.75-1.13 2.64l-1.11 2.65c-.69 1.79-1.41 3.57-2 5.4.4-1.88 1-3.73 1.52-5.57l.93-2.73c.3-.91.64-1.81 1-2.71l2-5.39c.66-1.8 1.3-3.59 1.87-5.42a.6.6 0 0 1 .78-.35h.11l2.13 1.19 2.12 1.19-.94.68-1.2-3-1.24-3-2.47-6.17a.63.63 0 0 1 .39-.83.7.7 0 0 1 .77.24c.85 1.1 1.68 2.19 2.54 3.26s1.74 2.15 2.62 3.21l-1 .45a10 10 0 0 1-.36-5 12.85 12.85 0 0 1 1.83-4.53 30.49 30.49 0 0 1 2.86-3.87c.51-.61 1-1.23 1.54-1.82s1.03-1.19 1.51-1.82zm-19.36 41.97c-.17.78-.4 1.54-.6 2.3l-.67 2.29a37.17 37.17 0 0 0-1.12 4.6 12.54 12.54 0 0 0 0 4.61 8.66 8.66 0 0 0 2 4 .48.48 0 0 1-.09.72.65.65 0 0 1-.65 0c-1.25-.61-2.43-1.26-3.64-1.94s-2.41-1.37-3.6-2.11c.28-.33.59-.65.88-1 1.49 1.7 3 3.37 4.53 5l2.28 2.33q1.18 1.12 2.32 2.14a.45.45 0 0 1 0 .74.82.82 0 0 1-.52.15l-2.44-.12-2.44-.16c.22-.22.44-.44.68-.65.12.95.21 1.89.36 2.82s.32 1.86.44 2.79.39 1.85.55 2.78.39 1.85.62 2.77.4 1.86.69 2.77l.8 2.75c.25.93.61 1.81.92 2.72s.62 1.82 1 2.69c-.49-.83-.86-1.72-1.28-2.59s-.83-1.74-1.14-2.65l-1-2.71c-.34-.9-.56-1.84-.85-2.75a27.87 27.87 0 0 1-.76-2.77c-.21-.94-.47-1.86-.67-2.8s-.34-1.89-.54-2.83-.27-1.9-.43-2.86a.61.61 0 0 1 .57-.65h.14l2.43.19 2.43.18c-.2.32-.37.61-.54.92-.83-.63-1.56-1.36-2.36-2.09s-1.55-1.5-2.31-2.29c-1.55-1.59-3-3.25-4.52-5a.65.65 0 0 1 .08-.93.69.69 0 0 1 .8 0c1.17.75 2.32 1.49 3.52 2.21s2.38 1.4 3.57 2.05c-.26.25-.52.5-.76.76a9.45 9.45 0 0 1-2.09-4.52 12.87 12.87 0 0 1 .21-4.89 33.71 33.71 0 0 1 1.44-4.59L189 274c.27-.75.58-1.48.82-2.23zm2.37 45.07c.39.69.74 1.4 1.08 2.12s.65 1.45 1 2.16a34.56 34.56 0 0 0 2.23 4.17 12.73 12.73 0 0 0 3.08 3.44 9.35 9.35 0 0 0 4.2 1.75.49.49 0 0 1 .42.62.63.63 0 0 1-.47.45c-1.34.3-2.71.61-4.05.87s-2.7.53-4.07.75v-1.29c2.26.26 4.43.56 6.65.79l3.27.4c1.07.14 2.16.26 3.23.38a.54.54 0 0 1 .48.69.74.74 0 0 1-.32.44l-2.06 1.31-2.07 1.29.16-.93q1 1.05 1.93 2.15c.64.72 1.28 1.43 1.89 2.17 1.2 1.49 2.49 2.9 3.68 4.39l1.89 2.15c.61.73 1.27 1.43 1.94 2.11a53.8 53.8 0 0 0 4.17 4 40.73 40.73 0 0 1-4.52-3.59c-.72-.64-1.43-1.29-2.09-2l-2-2.05c-1.28-1.43-2.62-2.8-3.88-4.24l-2-2.1c-.64-.71-1.29-1.41-2-2.09a.59.59 0 0 1 0-.85l.1-.08 2.06-1.31 2.06-1.31.16 1.14-3.23-.33L202 334l-3.3-.39-3.3-.42a.63.63 0 0 1-.55-.73.69.69 0 0 1 .58-.56l4.1-.66c1.36-.23 2.69-.47 4-.74l-.07 1.07a9.91 9.91 0 0 1-4.55-2.09 13 13 0 0 1-3.08-3.8 31.91 31.91 0 0 1-2-4.39c-.3-.73-.56-1.49-.83-2.24s-.5-1.48-.81-2.21z"/><path class="cls-9" d="M387.94 304.68c0 1.13-.05 2.26-.13 3.39s-.18 2.25-.31 3.37c-.32 2.23-.6 4.46-.74 6.68a22 22 0 0 0 .32 6.57 15.18 15.18 0 0 0 2.56 6 .77.77 0 0 1-.19 1.09.8.8 0 0 1-.88 0l-4.75-3.06-4.76-3 1.19-1.27q3 3.36 5.86 7c.94 1.22 1.8 2.47 2.67 3.74s1.71 2.57 2.54 3.89a.91.91 0 0 1-.28 1.25.92.92 0 0 1-.74.09l-3.16-.95-3.16-1 1.09-.73a71.57 71.57 0 0 1-1.27 8.2c-.6 2.7-1.32 5.36-2.09 8l-1.27 3.92c-.44 1.3-.85 2.6-1.33 3.89-1 2.57-1.84 5.15-2.82 7.71.72-2.64 1.38-5.3 2.17-7.91.39-1.31.71-2.64 1.07-4l1.06-4c.61-2.66 1.26-5.3 1.74-8s.87-5.36 1-8.05a.83.83 0 0 1 .9-.76h.16l3.18.87 3.17.9-1 1.35q-1.24-1.95-2.54-3.83c-.87-1.25-1.76-2.48-2.65-3.69-1.8-2.43-3.75-4.77-5.73-7a.82.82 0 0 1 .11-1.21 1 1 0 0 1 1.08-.06c1.58 1 3.14 2 4.71 3l4.69 3.14-1.09 1.08a16.54 16.54 0 0 1-2.56-6.61 22.32 22.32 0 0 1 0-6.89c.26-2.26.71-4.46 1.17-6.67.22-1.1.4-2.21.58-3.32s.32-1.99.43-3.12zm-11.72 64.83c-.3 1.09-.64 2.17-1 3.24s-.75 2.13-1.2 3.17c-.88 2.08-1.71 4.16-2.43 6.26a22.61 22.61 0 0 0-1.41 6.43 15.65 15.65 0 0 0 .82 6.48.77.77 0 0 1-.5 1 .8.8 0 0 1-.85-.25c-1.18-1.44-2.46-2.88-3.7-4.28s-2.52-2.78-3.78-4.15l1.48-.88a84.9 84.9 0 0 1 3.72 8.34c.52 1.43 1 2.9 1.44 4.4a45.29 45.29 0 0 1 1.16 4.59 1 1 0 0 1-.74 1.14.89.89 0 0 1-.74-.14l-2.66-1.95-2.67-1.91 1.29-.33q-.89 1.89-1.87 3.75a41.41 41.41 0 0 1-2.27 3.53c-.4.57-.79 1.16-1.22 1.71l-1.31 1.61c-.88 1.06-1.76 2.13-2.73 3.12s-1.88 2-2.85 3l-3 2.85c-1 .94-2.06 1.82-3.08 2.73s-2.08 1.78-3.15 2.64c1-1 2-1.91 2.89-2.91s1.93-1.94 2.85-2.94l2.77-3c.91-1 1.78-2.07 2.67-3.1s1.71-2.12 2.54-3.2l1.23-1.62c.4-.55.75-1.13 1.12-1.7.71-1.16 1.47-2.27 2.08-3.47s1.18-2.43 1.72-3.65a.86.86 0 0 1 1.12-.42l.15.08 2.73 1.83 2.71 1.86-1.47 1a43.74 43.74 0 0 0-1.11-4.51c-.45-1.48-.94-2.93-1.44-4.35a72.1 72.1 0 0 0-3.56-8.25.79.79 0 0 1 .42-1.11 1 1 0 0 1 1.06.24c1.26 1.35 2.49 2.75 3.72 4.17s2.44 2.86 3.65 4.33c-.46.25-.88.5-1.36.74a17.41 17.41 0 0 1-.65-7.09 23.16 23.16 0 0 1 1.8-6.64c.84-2.11 1.83-4.13 2.84-6.14.53-1 1-2 1.44-3.05s.94-2.14 1.33-3.2zM343 425.53a31 31 0 0 1-2.51 2.28l-2.71 2c-.89.68-1.84 1.28-2.78 1.91s-1.84 1.27-2.72 1.94a26.35 26.35 0 0 0-2.63 2c-.83.72-1.59 1.54-2.34 2.31a15.72 15.72 0 0 0-2 2.64 25.7 25.7 0 0 0-1.48 3 .82.82 0 0 1-1.06.44.78.78 0 0 1-.5-.73c0-1.89 0-3.75-.11-5.6s-.26-3.76-.43-5.61l1.65.24a50.33 50.33 0 0 1-2.25 8.77c-.51 1.45-1.1 2.9-1.74 4.36s-1.4 2.79-2.19 4.19a1 1 0 0 1-1.31.41.87.87 0 0 1-.46-.59l-.73-3.22-.7-3.27 1.18.57a43.81 43.81 0 0 1-7.89 2.81c-1.35.34-2.73.55-4.1.8a30.91 30.91 0 0 1-4.13.53l-4.14.28c-1.37.08-2.76 0-4.13 0s-2.74 0-4.11-.1l-4.1-.3q2.05-.07 4.1-.07c1.37 0 2.73-.16 4.09-.2s2.73-.08 4.08-.26l4.06-.49a35.63 35.63 0 0 0 4-.71c1.33-.29 2.66-.55 4-.92a46.83 46.83 0 0 0 7.53-2.91.84.84 0 0 1 1.11.39.88.88 0 0 1 .06.15l.87 3.18.83 3.19-1.76-.17q1.16-2.08 2.13-4.15a41.71 41.71 0 0 0 1.73-4.25q.77-2.14 1.38-4.25c.4-1.4.69-2.91 1-4.34a.74.74 0 0 1 1-.6 1 1 0 0 1 .68.84c.19 1.83.31 3.69.4 5.57s.14 3.81.1 5.66l-1.55-.31a21.45 21.45 0 0 1 4-5.94c.83-.81 1.68-1.59 2.58-2.31a27.35 27.35 0 0 1 2.8-1.91c.93-.64 1.88-1.23 2.85-1.79s2-1.09 2.89-1.71l2.85-1.79a33 33 0 0 0 2.61-1.96zm-60.44 22.07a19.81 19.81 0 0 1-3.38-.11l-1.68-.21-.84-.12-.83-.18c-1.09-.27-2.2-.47-3.28-.75s-2.15-.58-3.24-.81a31 31 0 0 0-6.5-1.07 18.82 18.82 0 0 0-6.54.9.8.8 0 0 1-.77-1.37c1.45-1.17 2.89-2.44 4.28-3.69s2.73-2.54 4-3.83c.28.5.57.94.86 1.41a42.2 42.2 0 0 1-4 2.06c-1.36.62-2.8 1.27-4.23 1.76s-2.92 1-4.44 1.42-3 .75-4.59 1.08a1 1 0 0 1-1.13-.71.88.88 0 0 1 .15-.73l2-2.65 2-2.65.33 1.27a39.7 39.7 0 0 1-3.71-1.91l-1.81-1-1.73-1.15a69.62 69.62 0 0 1-6.59-5l-3.09-2.74-3-2.85a244.64 244.64 0 0 1-5.73-5.89l6.19 5.38 3.13 2.64 3.2 2.55a81 81 0 0 0 6.68 4.68l1.73 1.06 1.78 1a38 38 0 0 0 3.63 1.76.83.83 0 0 1 .42 1.1.88.88 0 0 1-.08.15l-1.81 2.6-1.9 2.7-1-1.44q2.31-.49 4.52-1.09c1.46-.38 2.94-.89 4.36-1.39a54.74 54.74 0 0 0 8.13-3.61.75.75 0 0 1 1.07.35 1 1 0 0 1-.22 1.06c-1.3 1.34-2.67 2.62-4.05 3.84s-2.83 2.46-4.31 3.65c-.26-.45-.51-.9-.75-1.38a21.56 21.56 0 0 1 3.57-.68 21.24 21.24 0 0 1 7 .51 28.85 28.85 0 0 1 3.26.89c1.08.29 2.14.63 3.19 1s2.12.63 3.19 1a12.38 12.38 0 0 0 1.61.42l1.64.34a20.44 20.44 0 0 0 3.31.43zM225.15 418a30.66 30.66 0 0 1-2.46-2.33l-2.29-2.49c-1.45-1.73-3-3.39-4.46-5a26.51 26.51 0 0 0-2.42-2.27 18.76 18.76 0 0 0-2.65-1.93 16.54 16.54 0 0 0-6.15-2.2.78.78 0 0 1-.67-.89.8.8 0 0 1 .6-.65c1.83-.43 3.67-.89 5.48-1.36s3.61-1 5.4-1.47c0 .58.08 1.14.13 1.71a87.6 87.6 0 0 1-9.12-.48c-1.52-.17-3-.4-4.58-.66s-3.05-.57-4.58-.93a.94.94 0 0 1-.7-1.11.9.9 0 0 1 .45-.6l2.9-1.58 2.9-1.57-.25 1.29a54.21 54.21 0 0 1-4.89-6.73c-.71-1.19-1.44-2.37-2.08-3.6s-1.27-2.46-1.86-3.71l-1.66-3.79-1.46-3.86-1.29-3.91c-.36-1.33-.76-2.63-1.11-4l1.46 3.83 1.57 3.78 1.7 3.73 1.83 3.66c.65 1.2 1.33 2.38 2 3.56s1.43 2.31 2.17 3.45a59.6 59.6 0 0 0 4.94 6.41.84.84 0 0 1-.09 1.18l-.13.1-2.84 1.67-2.86 1.64-.26-1.7q2.27.51 4.51.91c1.52.25 3 .45 4.53.63a84.11 84.11 0 0 0 9 .59.82.82 0 0 1 .82.87 1 1 0 0 1-.69.83c-1.81.52-3.62 1-5.43 1.42s-3.65.87-5.49 1.28v-1.54a17.74 17.74 0 0 1 6.61 2.63 18 18 0 0 1 2.72 2.16 29.5 29.5 0 0 1 2.37 2.47c1.46 1.74 2.83 3.52 4.17 5.33l2.08 2.65a32.43 32.43 0 0 0 2.13 2.58zm-36.78-54.15a68.09 68.09 0 0 1-1-3.25l-.6-3.33c-.11-1.12-.21-2.24-.35-3.34s-.19-2.23-.35-3.33a22.74 22.74 0 0 0-1.73-6.34 15.12 15.12 0 0 0-3.9-5.16.76.76 0 0 1-.07-1.09.81.81 0 0 1 .86-.22l5.34 1.82 5.33 1.79-.84 1.53c-2.52-1.75-5-3.58-7.37-5.48-1.2-1-2.38-1.94-3.54-2.94s-2.31-2-3.44-3.07a.88.88 0 0 1 0-1.27.93.93 0 0 1 .69-.28l3.29.08 3.29.1-.87 1a78 78 0 0 1-1-8.22q-.27-4.12-.25-8.24v-4.11l.12-4.1.32-8.2q.23 4.1.36 8.2l.15 4.1.17 4.09c.14 2.72.3 5.44.58 8.15s.64 5.39 1.15 8a.83.83 0 0 1-.68 1h-6.77l.65-1.55c1.12 1 2.27 2 3.42 3s2.33 1.94 3.5 2.9q3.55 2.86 7.24 5.48a.85.85 0 0 1 .19 1.22.93.93 0 0 1-1 .31l-5.26-1.92-5.29-1.92.81-1.3a16.49 16.49 0 0 1 4.06 5.8 22.81 22.81 0 0 1 1.51 6.74c.1 1.14.14 2.27.15 3.4l.12 3.32.33 3.33q.31 1.65.68 3.3z"/><path class="cls-12" d="M278.46 181.26c-11.14 0-26.91 2.22-31.55 6.21"/><path class="cls-13" d="M278.46 181.24h-3.34a30 30 0 0 0-3.31.09 10.14 10.14 0 0 0-3.14.78 6.6 6.6 0 0 0-2.48 1.9.37.37 0 0 1-.52 0 .38.38 0 0 1-.12-.41l.82-2.58c.28-.86.57-1.73.87-2.57l.78.4-2.68 3.59-1.34 1.83-1.35 1.73a.41.41 0 0 1-.59.07.45.45 0 0 1-.16-.32l-.1-1.57-.08-1.57.52.37c-1.31.33-2.63.63-3.95.88l-3.93.82-1.94.47c-.64.18-1.28.36-1.92.57a13.5 13.5 0 0 0-3.59 1.75 12.36 12.36 0 0 1 3.48-2.06c.63-.25 1.27-.47 1.9-.7s1.29-.39 1.94-.57c1.3-.36 2.61-.66 3.91-1s2.6-.63 3.89-1a.4.4 0 0 1 .5.28.41.41 0 0 1 0 .08l.1 1.57.1 1.57-.75-.25 1.31-1.74 1.32-1.76 2.68-3.55a.46.46 0 0 1 .63-.1.43.43 0 0 1 .16.5l-.94 2.55-.89 2.56-.64-.37a7.3 7.3 0 0 1 2.8-2 10.32 10.32 0 0 1 3.35-.67 27.08 27.08 0 0 1 3.36.11l1.66.14c.58.12 1.13.17 1.68.18z"/><path class="cls-12" d="M303.27 180.29c21.13-2.28 36.91 13.49 36.91 13.49"/><path d="M303.27 180.3c.69-.05 1.38-.09 2.07-.13s1.38-.08 2.07-.06c1.38.11 2.75.11 4.1.26.67.08 1.35.14 2 .19h1l1 .09a24.29 24.29 0 0 0 3.51 0 1 1 0 0 1 .65.2c.12.1.12.19 0 .24l-1.69.84c-.56.29-1.1.63-1.64.95l-.79-.42q1-.24 2-.46c.67-.14 1.35-.2 2.05-.29s1.43-.16 2.16-.19 1.47 0 2.22 0a1.21 1.21 0 0 1 .74.3c.09.09.1.16.07.21l-.51.68-.51.68-.44-.42a22.16 22.16 0 0 1 2.37.92c.78.34 1.56.66 2.3 1.07a46.38 46.38 0 0 1 4.38 2.54c.69.48 1.39.94 2.07 1.44s1.35 1 2 1.53a45.79 45.79 0 0 1 3.76 3.33c-1.24-1.13-2.53-2.2-3.87-3.2-.66-.52-1.36-1-2-1.48s-1.39-.92-2.09-1.38a49.46 49.46 0 0 0-4.37-2.43c-.73-.39-1.51-.7-2.27-1a22 22 0 0 0-2.31-.88c-.26-.09-.47-.25-.46-.37l.45-.71.47-.7.81.51h-3.25l-1.05.11a25.85 25.85 0 0 0-4 .66 1 1 0 0 1-.72-.14c-.16-.1-.18-.22-.07-.29.54-.32 1.1-.63 1.67-.94s1.16-.61 1.75-.87l.67.44h-1.86a19.69 19.69 0 0 1-2-.08c-1.37-.18-2.79-.22-4.16-.44s-2.75-.22-4.11-.36h-2z"/><ellipse cx="284.5" cy="374.5" rx="10" ry="13"/><path class="cls-14" d="M342.22 257.15H227.78c-10.33 0-18.78 7.75-18.78 17.22V296c0 16.88 14.73 30.74 33 31.35 18.42-.61 35.47-16.55 35.47-33.47h15.08c0 16.93 17.05 32.87 35.47 33.47 18.26-.6 33-14.47 33-31.35v-21.6c-.02-9.5-8.47-17.25-18.8-17.25zm-98.99 70.2h-2.32zm85.86 0h-2.32z"/><path d="M521.14 509.45a29.53 29.53 0 0 1-4.21-.33c-18.77-1.53-44.37-5.25-55.3-6.84-10.27-1.49-37.51-5.45-55-9.2-5.78-.83-9.84-2.92-12.36-6.35-4.18-5.72-2.85-13.79-1.57-21.59.23-1.38.45-2.72.64-4.06 1-7 17-32.08 35.45-61.15 15.1-23.75 33.88-53.29 34.74-59.21l4.6-31.67a5.49 5.49 0 0 0-1-4.39 5.27 5.27 0 0 0-3.36-1.81 6 6 0 0 0-.86-.06c-1 0-4.44.34-5.08 4.76l-.14 1-4.95-.72.14-1a10 10 0 0 1 10.07-9 10.7 10.7 0 0 1 1.54.11 10 10 0 0 1 8.59 11.86l-4.6 31.67c-1 7-17.75 33.3-35.46 61.17-15.09 23.74-33.87 53.28-34.73 59.2-.2 1.37-.43 2.75-.65 4.12-1.17 7.13-2.28 13.83.67 17.85 1.68 2.29 4.69 3.73 9.2 4.39 17.51 3.74 44.63 7.68 54.84 9.16 10 1.45 36.42 5.29 55.16 6.82a25.71 25.71 0 0 0 3.63.29 10.54 10.54 0 0 0 6.59-1.86c4-3 4.82-9.76 5.71-16.9.18-1.45.36-2.82.55-4.16.86-5.92-8.74-39.59-16.45-66.63-9.45-33.13-17.6-61.74-16.59-68.72l4.6-31.67a10 10 0 0 1 10.08-9 10.72 10.72 0 0 1 1.53.11 10 10 0 0 1 8.59 11.86l-.14 1-4.95-.72.14-1c.58-4-2-5.85-4.36-6.19a6.08 6.08 0 0 0-.87-.06c-1 0-4.44.34-5.08 4.76l-4.6 31.67c-.86 5.92 8.74 39.59 16.45 66.63 9.45 33.13 17.6 61.74 16.59 68.72-.2 1.35-.37 2.71-.54 4.07-1 7.85-2 16-7.65 20.25a15.28 15.28 0 0 1-9.6 2.82z"/><path class="cls-15" d="M462.94 298.8a9.66 9.66 0 0 1 1.39.1 9.05 9.05 0 0 1 7.74 10.73l-4.6 31.67c-1 6.77-17.66 33-35.31 60.77-15.93 25.06-34 53.46-34.87 59.59-.2 1.37-.43 2.75-.65 4.13-1.2 7.31-2.34 14.22.85 18.58 1.85 2.52 5.07 4.09 9.87 4.78 17.49 3.74 44.64 7.68 54.86 9.17 10 1.45 36.42 5.29 55.21 6.82a26 26 0 0 0 3.71.29 11.51 11.51 0 0 0 7.2-2.06c4.3-3.27 5.18-10.22 6.1-17.57.17-1.38.35-2.77.55-4.15.89-6.13-8.34-38.5-16.48-67.05-9-31.65-17.55-61.54-16.56-68.31l4.6-31.67a9 9 0 0 1 9.09-8.18 9.66 9.66 0 0 1 1.38.1 9.05 9.05 0 0 1 7.74 10.73l-3-.43c.65-4.44-2.15-6.88-5.21-7.33a7.05 7.05 0 0 0-1-.07c-2.76 0-5.49 1.65-6.07 5.62l-4.6 31.67c-.89 6.13 8.34 38.5 16.48 67.05 9 31.65 17.55 61.54 16.56 68.31-.2 1.35-.37 2.72-.54 4.09-1 7.64-2 15.55-7.26 19.58a14.38 14.38 0 0 1-9 2.68 28.37 28.37 0 0 1-4.07-.31c-18.79-1.53-44.38-5.25-55.3-6.84-10.25-1.49-37.47-5.44-55-9.18-5.53-.8-9.41-2.76-11.76-6-3.94-5.38-2.64-13.24-1.39-20.84.22-1.36.45-2.72.64-4.08 1-6.77 17.66-33 35.31-60.77 15.93-25.06 34-53.46 34.88-59.6l4.6-31.67c.65-4.44-2.15-6.88-5.21-7.33a7 7 0 0 0-1-.07c-2.75 0-5.49 1.66-6.07 5.62l-3-.43a9 9 0 0 1 9.08-8.18m0-2a11 11 0 0 0-11.06 9.89l-.29 2 2 .29 3 .43 2 .29.29-2c.51-3.52 3-3.9 4.09-3.9a5 5 0 0 1 .72.05 4.28 4.28 0 0 1 2.73 1.45 4.47 4.47 0 0 1 .78 3.61l-4.6 31.67c-.83 5.71-20.34 36.4-34.58 58.8-18.55 29.19-34.56 54.37-35.61 61.56-.19 1.32-.42 2.69-.63 4-1.32 8-2.69 16.32 1.74 22.38 2.67 3.65 6.93 5.86 13 6.75 17.55 3.75 44.76 7.7 55 9.19 10.95 1.59 36.53 5.31 55.38 6.85a30.45 30.45 0 0 0 4.29.33 16.24 16.24 0 0 0 10.21-3.09c6-4.55 7-12.87 8-20.92.17-1.33.34-2.7.54-4.05 1-7.19-7.14-35.9-16.62-69.14-7.21-25.49-17.15-60.46-16.33-66.2l4.6-31.67c.51-3.52 3-3.9 4.09-3.9a5.07 5.07 0 0 1 .72.05c2 .29 4 1.78 3.51 5.06l-.29 2 2 .29 3 .43 2 .29.29-2a11.11 11.11 0 0 0-9.44-13 11.71 11.71 0 0 0-1.67-.12 11 11 0 0 0-11.07 9.89L500 346c-1 7.2 7.14 35.9 16.62 69.14 7.28 25.54 17.25 60.51 16.42 66.22-.2 1.36-.37 2.75-.54 4.09v.09c-.87 6.92-1.69 13.46-5.33 16.23a9.6 9.6 0 0 1-6 1.65 24.16 24.16 0 0 1-3.43-.27h-.12c-18.72-1.53-45.13-5.36-55.07-6.81-10.23-1.49-37.33-5.42-54.74-9.15h-.13c-4.23-.62-7-1.92-8.54-4-2.7-3.68-1.62-10.19-.49-17.07.23-1.39.46-2.79.66-4.17.83-5.71 20.34-36.4 34.58-58.81 18.54-29.17 34.56-54.36 35.6-61.56l4.6-31.67a11.11 11.11 0 0 0-9.43-13 11.69 11.69 0 0 0-1.68-.12z"/><path class="cls-16" d="M515.89 500.22a25.81 25.81 0 0 1-3.67-.28c-16.7-1.41-39.43-4.71-49.14-6.12-9.11-1.32-33.31-4.84-48.83-8.11-4.95-.72-8.37-2.42-10.39-5.19-3.29-4.5-2.21-11-1.16-17.38.19-1.16.38-2.32.55-3.47.83-5.71 15.48-27.93 31-51.45l.16-.25.27-.12a18.47 18.47 0 0 1 6.88-1.11c6.67 0 17.28 2.53 30 14.59 3.61 3.42 8.43 5.15 14.35 5.15 13.09 0 27.19-8.48 27.33-8.57l1.1-.67.83 2.74c8.17 27 15.9 52.42 15.07 58.13-.17 1.15-.31 2.32-.46 3.49-1.14 9.16-2.33 18.62-13.89 18.62zM458 461a5 5 0 1 0 5 5 5 5 0 0 0-5-5zm12.25-16a6.75 6.75 0 1 0 6.75 6.75 6.76 6.76 0 0 0-6.75-6.75zm-13.5-21a8.25 8.25 0 1 0 8.25 8.25 8.26 8.26 0 0 0-8.25-8.25z"/><path class="cls-15" d="M441.56 407.73c6.29 0 16.71 2.37 29.32 14.32 4.22 4 9.57 5.42 15 5.42 13.53 0 27.85-8.71 27.85-8.71 8.07 26.6 16.3 53.61 15.49 59.2-1.46 10.08-1.29 21.25-13.36 21.25a24.59 24.59 0 0 1-3.52-.27c-16.73-1.41-39.86-4.77-49.15-6.12s-33.19-4.82-48.73-8.1c-15.64-2.27-11.81-13.94-10.22-24.92.8-5.49 15.82-28.27 30.84-51a17.55 17.55 0 0 1 6.48-1m15.19 33.77a9.25 9.25 0 1 0-9.25-9.25 9.25 9.25 0 0 0 9.25 9.25m13.5 18a7.75 7.75 0 1 0-7.75-7.75 7.75 7.75 0 0 0 7.75 7.75M458 472a6 6 0 1 0-6-6 6 6 0 0 0 6 6m-16.44-66.27a19.23 19.23 0 0 0-7.28 1.19l-.54.24-.33.49c-18.84 28.58-30.34 46.33-31.14 51.86-.17 1.14-.36 2.31-.55 3.45-1.08 6.53-2.2 13.29 1.34 18.13 2.18 3 5.8 4.82 11.06 5.59 15.56 3.28 39.72 6.79 48.83 8.11 9.71 1.41 32.42 4.71 49.21 6.13a26.63 26.63 0 0 0 3.75.29c12.45 0 13.74-10.36 14.89-19.5.14-1.14.29-2.33.46-3.47.8-5.53-5.17-25.82-15.11-58.58l-.45-1.48-.75-2.47-2.2 1.34c-.14.08-14 8.42-26.81 8.42-5.65 0-10.25-1.64-13.66-4.88-13-12.29-23.85-14.87-30.7-14.87zm15.19 33.77a7.25 7.25 0 1 1 7.25-7.25 7.26 7.26 0 0 1-7.25 7.25zm13.5 18a5.75 5.75 0 1 1 5.75-5.75 5.76 5.76 0 0 1-5.75 5.75zM458 470a4 4 0 1 1 4-4 4 4 0 0 1-4 4z"/></g></svg>